<?xml version="1.0" encoding="UTF-8" standalone="no"?>
<svg width="51px" height="51px" viewBox="0 0 51 51" version="1.1" xmlns="http://www.w3.org/2000/svg" xmlns:xlink="http://www.w3.org/1999/xlink">
    <!-- Generator: Sketch 49.1 (51147) - http://www.bohemiancoding.com/sketch -->
    <title>Group 9</title>
    <desc>Created with Sketch.</desc>
    <defs></defs>
    <g id="Page-1" stroke="none" stroke-width="1" fill="none" fill-rule="evenodd">
        <g id="Artboard-Copy-12" transform="translate(-322.000000, -887.000000)" fill="#32C7B5" fill-rule="nonzero">
            <g id="Group-9" transform="translate(322.000000, 887.000000)">
                <path d="M29.0888878,24.5450524 C29.2336588,24.8334105 29.5216666,25 29.8194537,25 C29.9438033,25 30.0714127,24.9708029 30.1901057,24.9091863 C30.2383307,24.8841881 35.0539296,22.3926691 37.42894,21.6285642 C37.8593219,21.4894141 38.098146,21.0210886 37.9615244,20.5828391 C37.8256698,20.1444919 37.36921,19.9003689 36.9348013,20.0387378 C34.4329486,20.8445389 29.6501388,23.3193599 29.4472678,23.4243327 C29.0446895,23.6326184 28.8843869,24.13434 29.0888878,24.5450524 Z" id="Shape"></path>
                <path d="M29.8194377,14 C29.9437875,14 30.0713971,13.9708029 30.1900904,13.9091863 C30.2383155,13.8841881 35.0539239,11.3926691 37.4289388,10.6285642 C37.8593216,10.4894141 38.0981462,10.0210886 37.9615243,9.58283907 C37.8256695,9.14449187 37.3692087,8.9003689 36.9347992,9.0387378 C34.4329416,9.84453889 29.6501225,12.3193599 29.447251,12.4243327 C29.0447679,12.6326184 28.884369,13.1342423 29.0888704,13.5450524 C29.2336416,13.8333128 29.52165,14 29.8194377,14 Z" id="Shape"></path>
                <path d="M50.1499353,12.7502787 C49.6798795,12.7502787 49.2999701,13.1310816 49.2999701,13.6002371 L49.2999701,46.7499092 C49.2999701,48.155782 48.1558591,49.299884 46.7499751,49.299884 L26.3500149,49.299884 L26.3500149,47.3440733 C27.5893524,46.9105776 30.8175863,45.8999508 34,45.8999508 C41.4043488,45.8999508 46.4321222,47.5396045 46.4822256,47.556538 C46.738022,47.6415039 47.0237011,47.5990707 47.2472241,47.4391993 C47.4690538,47.2794274 47.5999402,47.0227366 47.5999402,46.7498096 L47.5999402,9.35034554 C47.5999402,8.95171277 47.323724,8.60656969 46.9343517,8.52070726 C46.9343517,8.52070726 46.2679663,8.37199194 45.1289353,8.16281432 C44.6690397,8.07784836 44.2245835,8.38384533 44.1395173,8.84453414 C44.0545507,9.30691628 44.3596536,9.74977518 44.8212425,9.83474114 C45.2556382,9.91462707 45.6194109,9.98514981 45.8999104,10.0413289 L45.8999104,45.6202505 C43.9737676,45.1153355 39.696649,44.1999344 33.9999004,44.1999344 C30.2964311,44.1999344 26.6585046,45.4162525 25.5330204,45.8285316 C24.5325458,45.3865692 21.5083115,44.1999344 17.8498655,44.1999344 C11.9950371,44.1999344 7.17215982,45.1655382 5.09989043,45.6560099 L5.09989043,10.0081593 C6.79733047,9.59080019 11.8106605,8.50028754 17.8498655,8.50028754 C20.949006,8.50028754 23.6068777,9.4649948 24.6498854,9.90108033 L24.6498854,43.3499761 C24.6498854,43.655973 24.8147386,43.9390601 25.0807948,44.0894687 C25.3468509,44.2407739 25.6749635,44.2364907 25.9376329,44.0784122 C26.0218027,44.0283092 34.4435597,38.9979859 41.9184318,36.5066805 C42.2660678,36.3902383 42.4998506,36.0664114 42.4998506,35.7000517 L42.4998506,0.850363206 C42.4998506,0.571559323 42.3629876,0.310585342 42.133488,0.15170996 C41.9056818,-0.00726502993 41.6133289,-0.043821309 41.3506595,0.0539941298 C34.5498427,2.60476578 27.6683424,6.88703006 27.5994129,6.92956284 C27.2015738,7.17858382 27.0800506,7.70302199 27.3290736,8.1008579 C27.5772997,8.49869381 28.101742,8.62021604 28.5003779,8.37119507 C28.5632313,8.33125211 34.5498427,4.60659559 40.7998207,2.09317709 L40.7998207,35.0915441 C34.9976856,37.1077175 28.939754,40.3997748 26.3498157,41.8735805 L26.3498157,9.35034554 C26.3498157,9.02821201 26.1679294,8.73406843 25.87976,8.58963627 C25.7335337,8.51742019 22.2503003,6.80037076 17.8498655,6.80037076 C10.1693005,6.80037076 4.26436862,8.46213753 4.01614255,8.53345714 C3.65147334,8.63714947 3.39986055,8.97123601 3.39986055,9.35034554 L3.39986055,46.7500088 C3.39986055,47.0160628 3.52566694,47.2676736 3.73733645,47.428342 C3.88694944,47.5413975 4.06714245,47.6000668 4.24992529,47.6000668 C4.3281185,47.6000668 4.40631171,47.5890103 4.48281156,47.5668972 C4.54148136,47.5507607 10.4192199,45.9000504 17.8498655,45.9000504 C20.9574727,45.9000504 23.6128543,46.8673475 24.6498854,47.3016401 L24.6498854,49.2999836 L4.24992529,49.2999836 C2.84404132,49.2999836 1.69993027,48.1558816 1.69993027,46.7500088 L1.69993027,13.6003367 C1.69993027,13.1311812 1.31912438,12.7503783 0.849965137,12.7503783 C0.380805897,12.7503783 0,13.1311812 0,13.6003367 L0,46.7500088 C0,49.0933958 1.90651971,51 4.2500249,51 L46.7499751,51 C49.0933807,51 51,49.0934954 51,46.7500088 L51,13.6003367 C50.9999004,13.1310816 50.619991,12.7502787 50.1499353,12.7502787 Z" id="Shape"></path>
                <path d="M29.0888878,18.5450524 C29.2336588,18.8334105 29.5216666,19 29.8194537,19 C29.9438033,19 30.0714127,18.9708029 30.1901057,18.9091863 C30.2383307,18.8841881 35.0539296,16.3926691 37.42894,15.6285642 C37.8593219,15.4894141 38.098146,15.0210886 37.9615244,14.5828391 C37.8256698,14.1444919 37.36921,13.9003689 36.9348013,14.0387378 C34.4329486,14.8445389 29.6501388,17.3193599 29.4472678,17.4243327 C29.0446895,17.6326184 28.8843869,18.13434 29.0888878,18.5450524 Z" id="Shape"></path>
                <path d="M29.0888878,29.5450524 C29.2336588,29.8334105 29.5216666,30 29.8194537,30 C29.9438033,30 30.0714127,29.9708029 30.1901057,29.9091863 C30.2383307,29.8841881 35.0539296,27.3926691 37.42894,26.6285642 C37.8593219,26.4894141 38.098146,26.0210886 37.9615244,25.5828391 C37.8256698,25.1444919 37.36921,24.9003689 36.9348013,25.0387378 C34.4329486,25.8445389 29.6501388,28.3193599 29.4472678,28.4243327 C29.0446895,28.6326184 28.8843869,29.13434 29.0888878,29.5450524 Z" id="Shape"></path>
                <path d="M20.3303998,15.5541783 C14.979108,14.1028593 8.89803461,15.9518385 8.64241808,16.030948 C8.18054127,16.1741433 7.90583221,16.7229801 8.02973057,17.2578496 C8.13372394,17.7055108 8.48378757,18 8.86604446,18 C8.94058658,18 9.01594116,17.9889669 9.09139729,17.9659618 C9.14948733,17.9469473 15.0042939,16.1671009 19.9353469,17.5042158 C20.3989501,17.629453 20.8678343,17.2958785 20.977007,16.7570183 C21.0860782,16.2192146 20.7966435,15.6803544 20.3303998,15.5541783 Z" id="Shape"></path>
                <path d="M20.3303998,20.5538032 C14.979108,19.1033181 8.89803461,20.9515244 8.64241808,21.030646 C8.18054127,21.1738632 7.90583221,21.7229017 8.02973057,22.2577357 C8.13372394,22.7054656 8.48378757,23 8.86604446,23 C8.94058658,23 9.01594116,22.9889652 9.09139729,22.9659566 C9.14948733,22.9469392 15.0042939,21.1668198 19.9353469,22.5041398 C20.3989501,22.6293961 20.8678343,22.2957705 20.977007,21.7568277 C21.0860782,21.2189414 20.7966435,20.6799987 20.3303998,20.5538032 Z" id="Shape"></path>
                <path d="M29.0888878,34.5450517 C29.2336588,34.8334102 29.5216666,35 29.8194537,35 C29.9438033,35 30.0714127,34.9708028 30.1901057,34.9091861 C30.2383307,34.8841879 35.0539296,32.3926646 37.42894,31.6285584 C37.8593219,31.4894081 38.098146,31.0210818 37.9615244,30.5828315 C37.8256698,30.1445812 37.36921,29.9003602 36.9348013,30.0387293 C34.4329486,30.8445318 29.6501388,33.319357 29.4472678,33.42433 C29.0446895,33.6326161 28.8843869,34.1343385 29.0888878,34.5450517 Z" id="Shape"></path>
                <path d="M20.3303998,25.5537542 C14.979108,24.1038663 8.89803461,25.9502556 8.64241808,26.0304008 C8.18054127,26.173559 7.90583221,26.7223714 8.02973057,27.2569853 C8.13372394,27.7045308 8.48378757,28 8.86604446,28 C8.94058658,28 9.01594116,27.988031 9.09139729,27.9649145 C9.14948733,27.945905 15.0042939,26.1665184 19.9353469,27.5032878 C20.3989501,27.6284926 20.8678343,27.2950043 20.977007,26.7562834 C21.0860782,26.2186186 20.7966435,25.6798977 20.3303998,25.5537542 Z" id="Shape"></path>
                <path d="M20.3303998,36.5539832 C14.979108,35.1031751 8.89803461,36.9515035 8.64241808,37.0305852 C8.18054127,37.17373 7.90583221,37.722491 8.02973057,38.2570548 C8.13372394,38.7045584 8.48378757,39 8.86604446,39 C8.94058658,39 9.01594116,38.9880322 9.09139729,38.9649178 C9.14948733,38.94591 15.0042939,37.1666901 19.9353469,38.5033343 C20.3989501,38.6274714 20.8678343,38.2950703 20.977007,37.7563999 C21.0860782,37.2187854 20.7966435,36.680115 20.3303998,36.5539832 Z" id="Shape"></path>
                <path d="M20.3303998,31.5541292 C14.979108,30.1034077 8.89803461,31.9505698 8.64241808,32.0307027 C8.18054127,32.173839 7.90583221,32.7225672 8.02973057,33.2570992 C8.13372394,33.7045761 8.48378757,34 8.86604446,34 C8.94058658,34 9.01594116,33.9880329 9.09139729,33.9649199 C9.14948733,33.9459133 15.0042939,32.1667995 19.9353469,33.503364 C20.3989501,33.6285496 20.8678343,33.2951124 20.977007,32.7564741 C21.0860782,32.2188917 20.7966435,31.6802534 20.3303998,31.5541292 Z" id="Shape"></path>
            </g>
        </g>
    </g>
</svg>