<?xml version="1.0" encoding="UTF-8" standalone="no"?>
<svg width="52px" height="52px" viewBox="0 0 52 52" version="1.1" xmlns="http://www.w3.org/2000/svg" xmlns:xlink="http://www.w3.org/1999/xlink">
    <!-- Generator: Sketch 49.1 (51147) - http://www.bohemiancoding.com/sketch -->
    <title>Group 7</title>
    <desc>Created with Sketch.</desc>
    <defs></defs>
    <g id="Page-1" stroke="none" stroke-width="1" fill="none" fill-rule="evenodd">
        <g id="Artboard-Copy-12" transform="translate(-908.000000, -887.000000)" fill="#21A814" fill-rule="nonzero">
            <g id="Group-7" transform="translate(908.000000, 887.000000)">
                <path d="M48.5333672,0 L3.46663281,0 C1.55207812,0 0,1.61177973 0,3.59997891 L0,8.10003164 C0,8.5971078 0.38796875,9 0.866632812,9 L39.8666328,9 C40.3452969,9 40.7332656,8.5971078 40.7332656,8.10003164 C40.7332656,7.60295548 40.3451953,7.20006328 39.8666328,7.20006328 L1.73336719,7.20006328 L1.73336719,3.59997891 C1.73336719,2.60582659 2.50940625,1.79993672 3.46673438,1.79993672 L48.5333672,1.79993672 C49.4906953,1.79993672 50.2667344,2.60582659 50.2667344,3.59997891 L50.2667344,7.19995781 L45.0667344,7.19995781 C44.5880703,7.19995781 44.2001016,7.60285001 44.2001016,8.09992617 C44.2001016,8.59700233 44.5880703,8.99989453 45.0667344,8.99989453 L51.1333672,8.99989453 C51.6120313,8.99989453 52,8.59700233 52,8.09992617 L52,3.59997891 C52,1.61177973 50.4479219,0 48.5333672,0 Z" id="Shape"></path>
                <path d="M51.1333672,10 C50.6547031,10 50.2667344,10.3916992 50.2667344,10.8749658 L50.2667344,48.4999316 C50.2667344,49.4664648 49.4906953,50.2499658 48.5333672,50.2499658 L3.46663281,50.2499658 C2.50930469,50.2499658 1.73326563,49.4664648 1.73326563,48.4999316 L1.73326563,10.8749658 C1.73326563,10.3916992 1.34529688,10 0.866632813,10 C0.38796875,10 0,10.3918018 0,10.8749658 L0,48.4999316 C0,50.432998 1.55207812,52 3.46663281,52 L48.5332656,52 C50.4479219,52 52,50.432998 52,48.5000342 L52,10.8749658 C52,10.3918018 51.6120313,10 51.1333672,10 Z" id="Shape"></path>
                <path d="M13.6956034,15.25 C13.2153393,15.25 12.8260737,15.6416916 12.8260737,16.1249487 C12.8260737,16.6082059 13.2153393,16.9998975 13.6956034,16.9998975 L23.2608386,16.9998975 C24.2213668,16.9998975 25,16.2164118 25,15.2498975 L25,11.75 C25,10.7834857 24.2213668,10 23.2608386,10 L6.73916145,10 C5.77863319,10 5,10.7834857 5,11.75 L5,15.25 C5,16.2165143 5.77863319,17 6.73916145,17 L9.34785267,17 C9.8281168,17 10.2173824,16.6083084 10.2173824,16.1250513 C10.2173824,15.6417941 9.8280149,15.2501025 9.34785267,15.2501025 L6.73916145,15.2501025 L6.73916145,11.7502051 L23.2608386,11.7502051 L23.2608386,15.25 L13.6956034,15.25 Z" id="Shape"></path>
                <path d="M35.695661,15.25 C35.2153994,15.25 34.8261357,15.6416916 34.8261357,16.1249487 C34.8261357,16.6082059 35.2153994,16.9998975 35.695661,16.9998975 L45.2608474,16.9998975 C46.2213708,16.9998975 47,16.2164118 47,15.2498975 L47,11.75 C47,10.7834857 46.2213708,10 45.2608474,10 L28.7391526,10 C27.7786292,10 27,10.7834857 27,11.75 L27,15.25 C27,16.2165143 27.7786292,17 28.7391526,17 L31.3478305,17 C31.8280922,17 32.2173559,16.6083084 32.2173559,16.1250513 C32.2173559,15.6417941 31.8280922,15.2501025 31.3478305,15.2501025 L28.7391526,15.2501025 L28.7391526,11.7502051 L45.2607455,11.7502051 L45.2607455,15.25 L35.695661,15.25 Z" id="Shape"></path>
                <path d="M5,24.2499744 C5,25.2165028 5.78349906,26 6.75002991,26 L9.3750235,26 C9.85828892,26 10.2499872,25.6083027 10.2499872,25.1250385 C10.2499872,24.6417742 9.85818638,24.2500769 9.3750235,24.2500769 L6.75002991,24.2500769 L6.75002991,20.7500256 L45.2499701,20.7500256 L45.2499701,24.2499744 L13.750047,24.2499744 C13.2667816,24.2499744 12.8750833,24.6416717 12.8750833,25.1249359 C12.8750833,25.6082002 13.2667816,25.9998975 13.750047,25.9998975 L45.2499701,25.9998975 C46.2165009,25.9998975 47,25.2164003 47,24.2498718 L47,20.7500256 C47,19.7834972 46.2165009,19 45.2499701,19 L6.75002991,19 C5.78349906,19 5,19.7834972 5,20.7500256 L5,24.2499744 Z" id="Shape"></path>
                <path d="M5,40.2499744 C5,41.2165028 5.78349906,42 6.75002991,42 L9.3750235,42 C9.85828892,42 10.2499872,41.6083027 10.2499872,41.1250385 C10.2499872,40.6417742 9.85818638,40.2500769 9.3750235,40.2500769 L6.75002991,40.2500769 L6.75002991,29.7501282 L45.2499701,29.7501282 L45.2499701,40.2500769 L13.750047,40.2500769 C13.2667816,40.2500769 12.8750833,40.6418767 12.8750833,41.1250385 C12.8750833,41.6082002 13.2667816,42 13.750047,42 L45.2499701,42 C46.2165009,42 47,41.2165028 47,40.2499744 L47,29.7500256 C47,28.7834972 46.2165009,28 45.2499701,28 L6.75002991,28 C5.78349906,28 5,28.7834972 5,29.7500256 L5,40.2499744 Z" id="Shape"></path>
                <path d="M38.5,43 C37.1193359,43 36,44.1193359 36,45.5 C36,46.8806641 37.1192383,48 38.5,48 L43.5,48 C44.8806641,48 46,46.8806641 46,45.5 C46,44.1193359 44.8807617,43 43.5,43 L38.5,43 Z M44.3333008,45.5 C44.3333008,45.9602539 43.9602539,46.3333008 43.5,46.3333008 L38.5,46.3333008 C38.0397461,46.3333008 37.6666992,45.9601562 37.6666992,45.5 C37.6666992,45.0397461 38.0397461,44.6666992 38.5,44.6666992 L43.5,44.6666992 C43.9602539,44.6666016 44.3333008,45.0397461 44.3333008,45.5 Z" id="Shape"></path>
                <path d="M4,3 C3.44767374,3 3,3.44767374 3,4 C3,4.55232626 3.44767374,5 4,5 L5,5 C5.55232626,5 6,4.55232626 6,4 C6,3.44767374 5.55232626,3 5,3 L4,3 Z" id="Shape"></path>
                <path d="M9,3 C8.44767374,3 8,3.44767374 8,4 C8,4.55232626 8.44767374,5 9,5 L10,5 C10.5523263,5 11,4.55232626 11,4 C11,3.44767374 10.5522091,3 10,3 L9,3 Z" id="Shape"></path>
                <path d="M13,3 C12.4476737,3 12,3.44764751 12,3.99994141 C12,4.55223531 12.4476737,5 13,5 L14,5 C14.5523263,5 15,4.55235249 15,4.00005859 C15,3.44776469 14.5523263,3.00011719 14,3.00011719 L13,3.00011719 L13,3 Z" id="Shape"></path>
            </g>
        </g>
    </g>
</svg>