<?xml version="1.0" encoding="UTF-8" standalone="no"?>
<svg width="29px" height="22px" viewBox="0 0 29 22" version="1.1" xmlns="http://www.w3.org/2000/svg" xmlns:xlink="http://www.w3.org/1999/xlink">
    <!-- Generator: Sketch 49.1 (51147) - http://www.bohemiancoding.com/sketch -->
    <title>envelope (2)</title>
    <desc>Created with Sketch.</desc>
    <defs></defs>
    <g id="Page-1" stroke="none" stroke-width="1" fill="none" fill-rule="evenodd">
        <g id="Artboard-Copy-6" transform="translate(-937.000000, -765.000000)" fill="#2F84C2" fill-rule="nonzero">
            <g id="envelope-(2)" transform="translate(937.000000, 765.000000)">
                <path d="M25.459741,0 L3.5462425,0 C1.59010873,0 0,1.5851006 0,3.53507341 L0,18.4649266 C0,20.4148994 1.59010873,22 3.5462425,22 L25.4537406,22 C27.4098743,22 28.9999831,20.4148994 28.9999831,18.4649266 L28.9999831,3.54105492 C29.0059835,1.59108211 27.4158747,0 25.459741,0 Z M27.3858727,18.4649266 C27.3858727,19.5236542 26.5218136,20.3849918 25.459741,20.3849918 L3.5462425,20.3849918 C2.48416987,20.3849918 1.62011079,19.5236542 1.62011079,18.4649266 L1.62011079,3.54105492 C1.62011079,2.48232735 2.48416987,1.62098967 3.5462425,1.62098967 L25.4537406,1.62098967 C26.5158132,1.62098967 27.3798723,2.48232735 27.3798723,3.54105492 L27.3798723,18.4649266 L27.3858727,18.4649266 Z" id="Shape"></path>
                <path d="M17.7310187,10.8086976 L24.7224784,4.42430006 C25.0478001,4.12314923 25.0773748,3.61119283 24.7816278,3.27390391 C24.4858808,2.942638 23.9831108,2.91252292 23.6518742,3.21367374 L14.0105211,12.0253469 L12.12957,10.3148102 C12.123655,10.3087872 12.1177401,10.3027642 12.1177401,10.2967412 C12.0763355,10.25458 12.0349309,10.2184419 11.9876114,10.1823038 L4.33367832,3.20765073 C4.00244165,2.9064999 3.4996717,2.93661498 3.20392468,3.27390391 C2.90817765,3.61119283 2.93775235,4.12314923 3.26898902,4.42430006 L10.3432579,10.8629047 L3.29856373,17.5785681 C2.97915694,17.8857419 2.96141211,18.3976983 3.26307408,18.7289643 C3.42277748,18.8976087 3.63571534,18.987954 3.8486532,18.987954 C4.04384624,18.987954 4.23903927,18.9156778 4.39282773,18.7711254 L11.5439909,11.9590937 L13.4840914,13.7238375 C13.6378798,13.8623669 13.8271579,13.9286201 14.016436,13.9286201 C14.2057141,13.9286201 14.4009071,13.8563439 14.5487807,13.7178145 L16.5421156,11.8988635 L23.6518742,18.7771484 C23.8056626,18.9277238 24.0067706,19 24.2019636,19 C24.4149015,19 24.6219244,18.9156778 24.7816278,18.7470333 C25.0832898,18.4217904 25.0714599,17.903811 24.7520531,17.5966372 L17.7310187,10.8086976 Z" id="Shape"></path>
            </g>
        </g>
    </g>
</svg>