<?xml version="1.0" encoding="UTF-8" standalone="no"?>
<svg width="54px" height="54px" viewBox="0 0 54 54" version="1.1" xmlns="http://www.w3.org/2000/svg" xmlns:xlink="http://www.w3.org/1999/xlink">
    <!-- Generator: Sketch 49.1 (51147) - http://www.bohemiancoding.com/sketch -->
    <title>Group 2</title>
    <desc>Created with Sketch.</desc>
    <defs></defs>
    <g id="Page-1" stroke="none" stroke-width="1" fill="none" fill-rule="evenodd">
        <g id="Artboard-Copy-12" transform="translate(-614.000000, -568.000000)" fill-rule="nonzero">
            <g id="Group-2" transform="translate(614.000000, 568.000000)">
                <path d="M48.8064412,1 L5.19355885,1 C2.84519617,1 1,2.8833024 1,5.28016251 L1,40.7198375 C1,43.1166976 2.84519617,45 5.19355885,45 L48.8064412,45 C51.1548038,45 53,43.1166976 53,40.7198375 L53,5.28005216 C53,2.88319205 51.1549119,1 48.8064412,1 Z" id="Shape" fill="#E1E6E9"></path>
                <path d="M48.9375408,45 L5.06245921,45 C2.27807945,45 0,42.7246623 0,39.9437665 L0,5.05612485 C0,2.27522903 2.27807945,0 5.06245921,0 L48.9375408,0 C51.7219205,0 54,2.27522903 54,5.05612485 L54,39.9437665 C54.0001088,42.7246623 51.7219205,45 48.9375408,45 Z M5.06245921,1.68537495 C3.20616979,1.68537495 1.6874864,3.20226672 1.6874864,5.05612485 L1.6874864,39.9437665 C1.6874864,41.7977333 3.20627855,43.3145164 5.06245921,43.3145164 L48.9375408,43.3145164 C50.7938302,43.3145164 52.3125136,41.7976247 52.3125136,39.9437665 L52.3125136,5.05612485 C52.3125136,3.20215809 50.7937214,1.68537495 48.9375408,1.68537495 L5.06245921,1.68537495 Z" id="Shape" fill="#193651"></path>
                <g id="Group" transform="translate(4.000000, 7.000000)" fill="#FDBF5E">
                    <path d="M19.9259145,0.00669512195 L0.0252256532,0.00669512195 L0.0252256532,32.7020488 L20.0088599,32.7020488 C21.4185036,32.7020488 22.4964727,33.808939 22.4964727,35.2564024 L22.4964727,2.56093902 C22.4964727,1.19864634 21.3355582,0.00669512195 19.9259145,0.00669512195 Z" id="Shape"></path>
                    <path d="M24.9839786,0.687841463 L44.9676128,0.687841463 L44.9676128,33.3831951 L24.9839786,33.3831951 C23.5743349,33.3831951 22.4963658,34.4900854 22.4963658,35.9375488 L22.4963658,3.24208537 C22.4135273,1.79473171 23.5744418,0.687841463 24.9839786,0.687841463 Z" id="Shape"></path>
                </g>
                <g id="Group" transform="translate(4.000000, 4.000000)" fill="#FFFFFF">
                    <path d="M19.9259145,0.086224924 L0.0252256532,0.086224924 L0.0252256532,32.6822006 L20.0088599,32.6822006 C21.4185036,32.6822006 22.4964727,33.7857264 22.4964727,35.2287903 L22.4964727,2.63281459 C22.4964727,1.27455319 21.3355582,0.086224924 19.9259145,0.086224924 Z" id="Shape"></path>
                    <path d="M24.9839786,0.765300912 L44.9676128,0.765300912 L44.9676128,33.3612766 L24.9839786,33.3612766 C23.5743349,33.3612766 22.4963658,34.4648024 22.4963658,35.9078663 L22.4963658,3.31189058 C22.4135273,1.86882675 23.5744418,0.765300912 24.9839786,0.765300912 Z" id="Shape"></path>
                </g>
                <polygon id="Shape" fill="#CFD0D1" points="32.8182292 45 21.181875 45 19 54 35 54"></polygon>
                <g id="Group" transform="translate(6.000000, 7.000000)" fill="#193651">
                    <path d="M29.217659,46.9439699 L12.5986426,46.9439699 C12.3468689,46.9439699 12.0949869,46.859544 11.9271738,46.606375 C11.7592525,46.4375231 11.6754,46.0999282 11.7592525,45.8467593 L14.1093934,36.9004398 C14.1933541,36.5628449 14.5290885,36.3096759 14.9487836,36.3096759 L26.9513705,36.3096759 C27.3710656,36.3096759 27.7068,36.5628449 27.7907607,36.9004398 L30.056941,45.6780162 C30.1409016,45.7624421 30.1409016,45.9311852 30.1409016,46.0156111 C30.0570492,46.606375 29.7213148,46.9439699 29.217659,46.9439699 Z M13.6898066,45.2559954 L28.2104557,45.2559954 L26.3638623,37.9976505 L15.5364,37.9976505 L13.6898066,45.2559954 Z" id="Shape"></path>
                    <path d="M31.9874951,46.9439699 L9.82880656,46.9439699 C9.32515082,46.9439699 8.98941639,46.606375 8.98941639,46.0999282 C8.98941639,45.5934815 9.32515082,45.2558866 9.82880656,45.2558866 L32.0714557,45.2558866 C32.5751115,45.2558866 32.9108459,45.5934815 32.9108459,46.0999282 C32.8268852,46.606375 32.4911508,46.9439699 31.9874951,46.9439699 Z" id="Shape"></path>
                    <path d="M1.68721967,5.0817662 L1.09971148,6.51657176 L0.00854754098,6.51657176 L2.69442295,0.3554375 L3.78558689,0.3554375 L6.4714623,6.51657176 L5.38029836,6.51657176 L4.79279016,5.0817662 C4.79279016,5.0817662 1.68721967,5.0817662 1.68721967,5.0817662 Z M4.37309508,4.06898148 L3.28193115,1.53696528 L2.19076721,4.06898148 L4.37309508,4.06898148 Z" id="Shape"></path>
                    <path d="M10.0806885,6.51657176 L7.39481311,6.51657176 L7.39481311,0.271011574 L9.82891475,0.271011574 C10.2486098,0.271011574 10.5843443,0.3554375 10.9200787,0.439863426 C11.2558131,0.524289352 11.4237344,0.693032407 11.5915475,0.861884259 C11.8433213,1.19947917 12.0112426,1.53707407 12.0112426,1.95909491 C12.0112426,2.46554167 11.8433213,2.80313657 11.5915475,3.05630556 C11.5075869,3.14073148 11.4236262,3.22515741 11.3397738,3.22515741 C11.3397738,3.22515741 11.2558131,3.30958333 11.088,3.30958333 C11.5076951,3.39400926 11.7594689,3.56275231 12.0112426,3.81603009 C12.2630164,4.06919907 12.346977,4.40679398 12.346977,4.82881481 C12.346977,5.25083565 12.1790557,5.67285648 11.927282,6.01045139 C11.5075869,6.26340278 10.9199705,6.51657176 10.0806885,6.51657176 Z M8.40201639,2.88734491 L9.7449541,2.88734491 C10.5003836,2.88734491 10.836118,2.63417593 10.836118,2.12772917 C10.836118,1.87456019 10.7521574,1.62128241 10.5843443,1.45253935 C10.4165311,1.2837963 10.0806885,1.2836875 9.7449541,1.2836875 L8.40201639,1.2836875 L8.40201639,2.88734491 Z M8.40201639,5.50378704 L9.99672787,5.50378704 C10.416423,5.50378704 10.6681967,5.41936111 10.836118,5.33493519 C11.0040393,5.25050926 11.1718525,4.99734028 11.1718525,4.65974537 C11.1718525,4.15329861 10.7521574,3.8157037 9.82891475,3.8157037 L8.31805574,3.8157037 L8.31805574,5.50367824 L8.40201639,5.50367824 L8.40201639,5.50378704 Z" id="Shape"></path>
                    <path d="M16.3757902,5.50378704 C16.7115246,5.50378704 17.047259,5.41936111 17.2990328,5.33493519 C17.5508066,5.25050926 17.8026885,4.99734028 18.138423,4.7441713 L18.8098918,5.41936111 C18.138423,6.17897685 17.3829934,6.51657176 16.4597508,6.51657176 C15.5365082,6.51657176 14.7810787,6.17897685 14.1096098,5.58821296 C13.5221016,4.99744907 13.1863672,4.23783333 13.1863672,3.30947454 C13.1863672,2.38111574 13.5221016,1.6215 14.1096098,1.03073611 C14.697118,0.439972222 15.5365082,0.102377315 16.4597508,0.102377315 C17.3829934,0.102377315 18.2223836,0.439972222 18.8098918,1.19958796 L18.138423,1.9592037 C17.8866492,1.70603472 17.5509148,1.45275694 17.2990328,1.36843981 C17.0471508,1.28412269 16.7115246,1.19958796 16.3757902,1.19958796 C15.788282,1.19958796 15.2006656,1.36843981 14.7810787,1.79035185 C14.3613836,2.21237269 14.1096098,2.71871065 14.1096098,3.30958333 C14.1096098,3.90034722 14.2775311,4.49121991 14.697118,4.91313194 C15.2846262,5.33493519 15.7881738,5.50378704 16.3757902,5.50378704 Z" id="Shape"></path>
                </g>
                <g id="Group" transform="translate(6.000000, 18.000000)" fill="#E1E6E9">
                    <rect id="Rectangle-path" x="0.00857714286" y="0.0138541667" width="18.9506" height="1.21208333"></rect>
                    <rect id="Rectangle-path" x="0.00857714286" y="3.48864583" width="18.9506" height="1.21208333"></rect>
                    <rect id="Rectangle-path" x="0.00857714286" y="6.88260417" width="18.9506" height="1.21208333"></rect>
                    <rect id="Rectangle-path" x="0.00857714286" y="10.3572917" width="18.9506" height="1.21208333"></rect>
                    <rect id="Rectangle-path" x="0.00857714286" y="13.75125" width="9.51748" height="1.21208333"></rect>
                </g>
                <polygon id="Shape" fill="#193651" points="42 27.8947717 37.5398357 19 33 27.8947717 36.1061602 26.6973583 36.1061602 32 38.8938398 32 38.8938398 26.6973583"></polygon>
                <polygon id="Shape" fill="#F16051" points="24 43 21.9607724 41.3478618 20 43 20 37 24 37"></polygon>
                <g id="Group" transform="translate(28.000000, 9.000000)" fill="#193651">
                    <rect id="Rectangle-path" x="3.60333088" y="0.00266666667" width="1.67688529" height="1.72388889"></rect>
                    <rect id="Rectangle-path" x="8.8017293" y="0.00266666667" width="1.67688529" height="1.72388889"></rect>
                    <rect id="Rectangle-path" x="14.0001277" y="0.00266666667" width="1.67688529" height="1.72388889"></rect>
                    <rect id="Rectangle-path" x="8.96947187" y="5.77777778" width="1.25763694" height="2.15488889"></rect>
                    <rect id="Rectangle-path" transform="translate(6.651818, 7.392632) rotate(160.001229) translate(-6.651818, -7.392632) " x="6.02299963" y="6.31518775" width="1.257637" height="2.15488899"></rect>
                    <rect id="Rectangle-path" transform="translate(4.147875, 8.938981) rotate(139.985359) translate(-4.147875, -8.938981) " x="3.5189864" y="7.8615088" width="1.25777761" height="2.15494471"></rect>
                    <rect id="Rectangle-path" transform="translate(2.247062, 11.298155) rotate(120.018478) translate(-2.247062, -11.298155) " x="1.61816311" y="10.2206106" width="1.25779716" height="2.15508932"></rect>
                    <rect id="Rectangle-path" transform="translate(1.258299, 14.146268) rotate(100.072701) translate(-1.258299, -14.146268) " x="0.62941759" y="13.0688093" width="1.25776211" height="2.15491816"></rect>
                    <rect id="Rectangle-path" transform="translate(17.958170, 17.102404) rotate(99.956864) translate(-17.958170, -17.102404) " x="17.3293762" y="16.0250568" width="1.25758816" height="2.15469419"></rect>
                    <rect id="Rectangle-path" transform="translate(1.212938, 17.122003) rotate(170.002641) translate(-1.212938, -17.122003) " x="0.164887914" y="16.4755693" width="2.09610009" height="1.2928682"></rect>
                    <rect id="Rectangle-path" transform="translate(17.982828, 14.093068) rotate(169.927299) translate(-17.982828, -14.093068) " x="16.9347472" y="13.4465595" width="2.0961621" height="1.29301757"></rect>
                    <rect id="Rectangle-path" transform="translate(16.974337, 11.241744) rotate(150.007099) translate(-16.974337, -11.241744) " x="15.9262554" y="10.5952343" width="2.09616425" height="1.29301889"></rect>
                    <polygon id="Shape" points="15.2578728 7.67411111 13.9163645 9.31177778 14.8386244 10.1737778 16.2640039 8.536"></polygon>
                    <rect id="Rectangle-path" transform="translate(12.479593, 7.382237) rotate(109.962547) translate(-12.479593, -7.382237) " x="11.4315443" y="6.73580333" width="2.09609796" height="1.29286689"></rect>
                </g>
            </g>
        </g>
    </g>
</svg>