<?xml version="1.0" encoding="UTF-8" standalone="no"?>
<svg width="49px" height="32px" viewBox="0 0 49 32" version="1.1" xmlns="http://www.w3.org/2000/svg" xmlns:xlink="http://www.w3.org/1999/xlink">
    <!-- Generator: Sketch 49.1 (51147) - http://www.bohemiancoding.com/sketch -->
    <title>mail-box</title>
    <desc>Created with Sketch.</desc>
    <defs></defs>
    <g id="Page-1" stroke="none" stroke-width="1" fill="none" fill-rule="evenodd">
        <g id="Artboard-Copy-6" transform="translate(-124.000000, -765.000000)" fill="#148DE3" fill-rule="nonzero">
            <g id="mail-box" transform="translate(124.000000, 765.000000)">
                <path d="M41.5008455,0 L10.7722661,1.65423231e-14 C4.82542277,0.00618955513 0.00607666291,4.91506946 0,10.9723932 L0,30.2162828 C0,30.6824688 0.370952649,31.060313 0.828635851,31.060313 L26.3506201,31.060313 C26.3782413,31.6221558 26.7491939,32 27.2068771,32 C27.6645603,32 28.035513,31.6221558 28.035513,31.1559698 L48.1713641,31.060313 C48.6290474,31.060313 49,30.6824688 49,30.2162828 L49,10.9723932 C48.9939233,4.91506946 47.5775085,3.79532267 41.5008455,0 Z M19.8872604,29.3722525 L1.6572717,29.3722525 L1.6572717,10.9723932 C1.6572717,5.84476877 5.73816516,1.68806049 10.7722661,1.68806049 C15.806367,1.68806049 19.8872604,5.84476877 19.8872604,10.9723932 L19.8872604,29.3722525 Z M47.3427283,29.3722525 L21.5445321,29.3722525 L21.5445321,10.9723932 C21.5518517,7.18438544 19.6385316,3.66112186 16.4843292,1.65429928 L38.2277339,1.65429928 C43.2593489,1.66048883 47.3366516,5.81353965 47.3427283,10.938632 L47.3427283,29.3722525 Z" id="Shape"></path>
                <path d="M36.0376955,4.06528836 L35.8678578,4.06528836 L25.783742,4 C25.3441541,4.00707291 24.9932004,4.37799238 25.0001,4.82875408 C25.0058055,5.20280196 25.2587045,5.52489119 25.6139042,5.61044614 L25.5820596,5.58868335 C28.8321967,6.32100109 30.8922754,9.61031012 30.1889083,12.9445049 C30.0950995,13.3847933 30.367238,13.8197769 30.7968744,13.9159412 C30.8516736,13.9281828 30.907667,13.9345756 30.963793,13.9347116 L41.0479088,14 C41.4210211,13.9986398 41.7431821,13.7317737 41.8227935,13.3579978 C42.7182896,9.15614799 40.13251,5.00244831 36.0376955,4.06528836 Z M40.3685579,12.3677911 L31.8766709,12.3133841 C32.0914891,9.76700218 31.0812199,7.27339499 29.1698819,5.63220892 L35.7404795,5.67573449 C38.713038,6.38424918 40.7004049,9.25788901 40.3685579,12.3677911 Z" id="Shape"></path>
                <path d="M15.2119089,24 L15.2014011,24 L4.78809107,24 C4.3528021,24 4,24.4476667 4,25 C4,25.5523333 4.3528021,26 4.78809107,26 L15.2119089,26 C15.6471979,26 16,25.5523333 16,25 C16,24.4476667 15.6471979,24 15.2119089,24 Z" id="Shape"></path>
            </g>
        </g>
    </g>
</svg>