<?xml version="1.0" encoding="UTF-8" standalone="no"?>
<svg width="52px" height="59px" viewBox="0 0 52 59" version="1.1" xmlns="http://www.w3.org/2000/svg" xmlns:xlink="http://www.w3.org/1999/xlink">
    <!-- Generator: Sketch 49.1 (51147) - http://www.bohemiancoding.com/sketch -->
    <title>Group 6</title>
    <desc>Created with Sketch.</desc>
    <defs></defs>
    <g id="Page-1" stroke="none" stroke-width="1" fill="none" fill-rule="evenodd">
        <g id="Artboard-Copy-12" transform="translate(-908.000000, -563.000000)" fill-rule="nonzero">
            <g id="Group-6" transform="translate(908.000000, 563.000000)">
                <path d="M23,4 C21.343125,4 20,5.343125 20,7 C20.00175,8.656125 21.343875,9.99825 23,10 C24.656875,10 26,8.656875 26,7 C26,5.343125 24.656875,4 23,4 Z M23,8 C22.44775,8 22,7.55225 22,7 C22.00075,6.448 22.448,6.00075 23,6 C23.55225,6 24,6.44775 24,7 C24,7.55225 23.55225,8 23,8 Z" id="Shape" fill="#000000"></path>
                <path d="M39,15 L7,15 C6.44775,15 6,15.44775 6,16 L6,38 C6,38.55225 6.44775,39 7,39 L39,39 C39.55225,39 40,38.55225 40,38 L40,16 C40,15.44775 39.55225,15 39,15 Z M28,37 L18,37 L18,31.902375 C18.001625,30.300125 19.300125,29.001625 20.902375,29 L25.09775,29 C26.7,29.001625 27.9985,30.300125 28.000125,31.902375 L28.000125,37 L28,37 Z M20,24 C20,22.343125 21.343125,21 23,21 C24.656875,21 26,22.343125 26,24 C25.99825,25.656125 24.656125,26.99825 23,27 C21.343125,27 20,25.656875 20,24 Z M38,37 L30,37 L30,31.902375 C29.9935,29.83 28.682375,27.98625 26.727,27.29975 C28.567875,25.241375 28.3915,22.080375 26.333125,20.2395 C24.27475,18.398625 21.11375,18.575 19.272875,20.633375 C17.5755,22.531375 17.5755,25.40175 19.272875,27.29975 C17.3175,27.986375 16.0065,29.83 16,31.902375 L16,37 L8,37 L8,17 L38,17 L38,37 Z" id="Shape" fill="#4A90E2"></path>
                <rect id="Rectangle-path" fill="#4A90E2" x="6" y="41" width="15" height="2"></rect>
                <rect id="Rectangle-path" fill="#000000" x="23" y="41" width="6" height="2"></rect>
                <rect id="Rectangle-path" fill="#000000" x="6" y="47" width="23" height="2"></rect>
                <rect id="Rectangle-path" fill="#000000" x="31" y="41" width="4" height="2"></rect>
                <path d="M51.7127356,40.6047833 L48.7693275,37.6547833 C48.3865619,37.2707917 47.7657481,37.2705458 47.3826144,37.6541687 C47.356737,37.6801042 47.3324539,37.7073917 47.3096425,37.7359083 L45.1322564,40.4635521 L45.1322564,6.88333333 C45.1322564,6.3402875 44.6929527,5.9 44.1511204,5.9 L29.5504675,5.9 L30.399886,1.1571375 C30.4956694,0.622572917 30.1408661,0.1113625 29.6073734,0.0154875 C29.5502222,0.0051625 29.4922125,0 29.4340802,0 L15.6981761,0 C15.1562211,0 14.7169175,0.4402875 14.7169175,0.98345625 C14.7169175,1.04171875 14.7220684,1.09985833 14.7323704,1.1571375 L15.5817889,5.9 L0.981136008,5.9 C0.439303648,5.9 0,6.3402875 0,6.88333333 L0,58.0166667 C0,58.5597125 0.439303648,59 0.981136008,59 L44.1511204,59 C44.6929527,59 45.1322564,58.5597125 45.1322564,58.0166667 L45.1322564,49.7948937 L51.7678018,41.9352333 C52.0974635,41.54485 52.0734257,40.9664042 51.7127356,40.6047833 Z M28.2612548,1.96666667 L26.5002383,11.8 L18.6320181,11.8 L16.8710016,1.96666667 L28.2612548,1.96666667 Z M43.1699844,57.0333333 L1.96227202,57.0333333 L1.96227202,7.86666667 L15.9338941,7.86666667 L16.845492,12.9571375 C16.9293792,13.4258188 17.3363053,13.7667896 17.8112978,13.7666667 L27.3208359,13.7666667 C27.795951,13.7667896 28.2027545,13.4258188 28.2866417,12.9571375 L29.1982397,7.86666667 L43.1699844,7.86666667 L43.1698617,42.9218854 L40.1450194,46.7112833 L37.9767088,44.5381167 C37.5938205,44.154125 36.9727614,44.1540021 36.5897504,44.5377479 C36.5896278,44.5378708 36.5895051,44.5379938 36.5893825,44.5381167 L33.6459745,47.4881167 C33.2628409,47.8718625 33.2627182,48.4943125 33.6456066,48.8781813 C33.6457292,48.8783042 33.6458518,48.8784271 33.6459745,48.87855 L39.5327905,54.77855 C39.7167535,54.9630479 39.96633,55.0666667 40.2264537,55.0666667 L40.2671708,55.0656833 C40.5411531,55.0542521 40.7979654,54.9283854 40.9751831,54.7185667 L43.1698617,52.119125 L43.1699844,57.0333333 Z M40.1662365,52.6323021 L35.7270866,48.1833333 L37.2831683,46.6237667 L39.5329132,48.87855 C39.73098,49.0750938 40.0023867,49.1790813 40.2807841,49.1651917 C40.5595494,49.1497042 40.8184466,49.0159708 40.9927209,48.797425 L48.1572213,39.82205 L49.686935,41.3556813 L40.1662365,52.6323021 Z" id="Shape" fill="#4A90E2"></path>
                <rect id="Rectangle-path" fill="#4A90E2" x="6" y="53" width="9" height="2"></rect>
                <rect id="Rectangle-path" fill="#4A90E2" x="17" y="53" width="15" height="2"></rect>
            </g>
        </g>
    </g>
</svg>