<?xml version="1.0" encoding="UTF-8" standalone="no"?>
<svg width="44px" height="37px" viewBox="0 0 44 37" version="1.1" xmlns="http://www.w3.org/2000/svg" xmlns:xlink="http://www.w3.org/1999/xlink">
    <!-- Generator: Sketch 49.1 (51147) - http://www.bohemiancoding.com/sketch -->
    <title>news</title>
    <desc>Created with Sketch.</desc>
    <defs></defs>
    <g id="Page-1" stroke="none" stroke-width="1" fill="none" fill-rule="evenodd">
        <g id="Artboard-Copy-20" transform="translate(-864.000000, -1197.000000)" fill="#C79332" fill-rule="nonzero">
            <g id="news" transform="translate(864.000000, 1197.000000)">
                <path d="M43.1372734,0 L0.862726563,0 C0.386289063,0 0,0.393785708 0,0.879469349 L0,30.2006918 C0,30.6864631 0.386289063,31.0801612 0.862726563,31.0801612 L16.7372734,31.0801612 L16.7372734,35.2410613 L13.4588437,35.2410613 C12.9823203,35.2410613 12.5961172,35.634847 12.5961172,36.1205307 C12.5961172,36.6063019 12.9824063,37 13.4588437,37 L17.6,37 L26.4,37 L30.5411563,37 C31.0176797,37 31.4038828,36.6062143 31.4038828,36.1205307 C31.4038828,35.6347594 31.0175938,35.2410613 30.5411563,35.2410613 L27.2627266,35.2410613 L27.2627266,31.0801612 L43.1372734,31.0801612 C43.6137969,31.0801612 44,30.6863755 44,30.2006918 L44,0.879469349 C44,0.393785708 43.6137109,0 43.1372734,0 Z M25.5372734,35.2410613 L18.4627266,35.2410613 L18.4627266,31.0801612 L25.5372734,31.0801612 L25.5372734,35.2410613 Z M42.2745469,29.3212225 L26.4,29.3212225 L17.6,29.3212225 L1.72545312,29.3212225 L1.72545312,24.3354311 L42.2745469,24.3354311 L42.2745469,29.3212225 Z M42.2745469,22.5764924 L1.72545312,22.5764924 L1.72545312,1.7590263 L42.2745469,1.7590263 L42.2745469,22.5764924 Z" id="Shape"></path>
                <path d="M24.1090172,26 L19.8909828,26 C19.3988521,26 19,26.2238769 19,26.5 C19,26.7761231 19.3989409,27 19.8909828,27 L24.1090172,27 C24.6011479,27 25,26.7761231 25,26.5 C25,26.2238769 24.6010591,26 24.1090172,26 Z" id="Shape"></path>
                <path d="M18.1806809,5 L5.81931911,5 C5.3667716,5 5,5.39293246 5,5.87756373 L5,12.1224363 C5,12.607155 5.36685321,13 5.81931911,13 L18.1806809,13 C18.6332284,13 19,12.6070675 19,12.1224363 L19,5.87756373 C19,5.39293246 18.6332284,5 18.1806809,5 Z M17.3613618,11.2448725 L6.63863822,11.2448725 L6.63863822,6.75521488 L17.3613618,6.75521488 L17.3613618,11.2448725 Z" id="Shape"></path>
                <path d="M30.1174062,14 L24.8825938,14 C24.3950968,14 24,14.3757544 24,14.8391988 L24,18.1608012 C24,18.6243292 24.3951847,19 24.8825938,19 L30.1174062,19 C30.6049032,19 31,18.6242456 31,18.1608012 L31,14.8391988 C31.0000879,14.3757544 30.6049032,14 30.1174062,14 Z M29.2348124,17.3216023 L25.7652755,17.3216023 L25.7652755,15.6783977 L29.2348124,15.6783977 L29.2348124,17.3216023 Z" id="Shape"></path>
                <path d="M18.1806809,14 L5.81931911,14 C5.3667716,14 5,14.2238769 5,14.5 C5,14.7761729 5.36685321,15 5.81931911,15 L18.1806809,15 C18.6332284,15 19,14.7761231 19,14.5 C19,14.2238769 18.6332284,14 18.1806809,14 Z" id="Shape"></path>
                <path d="M38.1624977,14 L33.8375023,14 C33.3749114,14 33,14.2238769 33,14.5 C33,14.7761729 33.3749948,15 33.8375023,15 L38.1624977,15 C38.6250886,15 39,14.7761231 39,14.5 C39.0000834,14.2238769 38.6250886,14 38.1624977,14 Z" id="Shape"></path>
                <path d="M38.1624977,18 L33.8375023,18 C33.3749114,18 33,18.2238769 33,18.5 C33,18.7761729 33.3749948,19 33.8375023,19 L38.1624977,19 C38.6250886,19 39,18.7761231 39,18.5 C39,18.2238769 38.6250886,18 38.1624977,18 Z" id="Shape"></path>
                <path d="M18.1806809,18 L5.81931911,18 C5.3667716,18 5,18.2238769 5,18.5 C5,18.7761729 5.36685321,19 5.81931911,19 L18.1806809,19 C18.6332284,19 19,18.7761231 19,18.5 C19,18.2238769 18.6332284,18 18.1806809,18 Z" id="Shape"></path>
                <path d="M35.1541713,5 L24.8458287,5 C24.3786387,5 24,5.22387688 24,5.5 C24,5.77612312 24.378723,6 24.8458287,6 L35.1541713,6 C35.6213613,6 36,5.77612312 36,5.5 C36,5.22387688 35.621277,5 35.1541713,5 Z" id="Shape"></path>
                <path d="M37.1805993,8 L24.8193191,8 C24.3667716,8 24,8.22387688 24,8.5 C24,8.77617293 24.3668532,9 24.8193191,9 L37.1806809,9 C37.6332284,9 38,8.77612312 38,8.5 C38,8.22387688 37.6331468,8 37.1805993,8 Z" id="Shape"></path>
                <path d="M37.4999903,5 C36.8339038,5 36.8327695,6 37.4999903,6 C38.1661284,6.00004981 38.1672111,5 37.4999903,5 Z" id="Shape"></path>
            </g>
        </g>
    </g>
</svg>