<?xml version="1.0" encoding="UTF-8" standalone="no"?>
<svg width="53px" height="65px" viewBox="0 0 53 65" version="1.1" xmlns="http://www.w3.org/2000/svg" xmlns:xlink="http://www.w3.org/1999/xlink">
    <!-- Generator: Sketch 49.1 (51147) - http://www.bohemiancoding.com/sketch -->
    <title>phone-book</title>
    <desc>Created with Sketch.</desc>
    <defs></defs>
    <g id="Page-1" stroke="none" stroke-width="1" fill="none" fill-rule="evenodd">
        <g id="Artboard-Copy-20" transform="translate(-1164.000000, -1197.000000)" fill="#C78132" fill-rule="nonzero">
            <g id="phone-book" transform="translate(1164.000000, 1197.000000)">
                <path d="M25.9670077,26 L21.0329923,26 C15.5008261,26 11,30.4735626 11,35.9722179 L11,42 L14.9717844,42 L14.9717844,35.9722179 C14.9717844,32.6502068 17.6908681,29.9477255 21.0329923,29.9477255 L25.9670077,29.9477255 C29.3091319,29.9477255 32.0282156,32.6503384 32.0282156,35.9722179 L32.0282156,42 L36,42 L36,35.9722179 C36,30.473431 31.4991739,26 25.9670077,26 Z" id="Shape"></path>
                <path d="M24,7 C19.5887387,7 16,10.5888693 16,15 C16,19.4112613 19.5888693,23 24,23 C28.4112613,23 32,19.4111307 32,15 C32,10.5887387 28.4111307,7 24,7 Z M24,19.0807368 C21.7498204,19.0807368 19.9192632,17.250049 19.9192632,15 C19.9192632,12.7498204 21.7498204,10.9192632 24,10.9192632 C26.2501796,10.9192632 28.0807368,12.749951 28.0807368,15 C28.0807368,17.2501796 26.250049,19.0807368 24,19.0807368 Z" id="Shape"></path>
                <rect id="Rectangle-path" x="18" y="46" width="12" height="4"></rect>
                <rect id="Rectangle-path" x="18" y="53" width="12" height="4"></rect>
                <path d="M45.7400724,2.98479492 L45.7400724,0 L0,0 L0,65 L45.7400724,65 L45.7400724,62.0152051 L53,62.0152051 L53,2.98479492 L45.7400724,2.98479492 Z M41.9282197,61.1914062 L3.8118527,61.1914062 L3.8118527,3.80859375 L41.9282197,3.80859375 L41.9282197,61.1914062 Z M49.1881473,58.2066113 L45.7400724,58.2066113 L45.7400724,50.970791 L49.1881473,50.970791 L49.1881473,58.2066113 Z M49.1881473,47.1623242 L45.7400724,47.1623242 L45.7400724,39.9265039 L49.1881473,39.9265039 L49.1881473,47.1623242 Z M49.1881473,36.1179102 L45.7400724,36.1179102 L45.7400724,28.8820898 L49.1881473,28.8820898 L49.1881473,36.1179102 Z M49.1881473,25.0734961 L45.7400724,25.0734961 L45.7400724,17.8376758 L49.1881473,17.8376758 L49.1881473,25.0734961 Z M49.1881473,14.029209 L45.7400724,14.029209 L45.7400724,14.029082 L45.7400724,6.79338867 L49.1881473,6.79338867 L49.1881473,14.029209 Z" id="Shape"></path>
            </g>
        </g>
    </g>
</svg>