<?xml version="1.0" encoding="UTF-8" standalone="no"?>
<svg width="26px" height="26px" viewBox="0 0 26 26" version="1.1" xmlns="http://www.w3.org/2000/svg" xmlns:xlink="http://www.w3.org/1999/xlink">
    <!-- Generator: Sketch 49.1 (51147) - http://www.bohemiancoding.com/sketch -->
    <title>auricular-phone-symbol-in-a-circle</title>
    <desc>Created with Sketch.</desc>
    <defs></defs>
    <g id="Page-1" stroke="none" stroke-width="1" fill="none" fill-rule="evenodd">
        <g id="Artboard-Copy-6" transform="translate(-530.000000, -765.000000)" fill="#268AD1" fill-rule="nonzero">
            <g id="auricular-phone-symbol-in-a-circle" transform="translate(530.000000, 765.000000)">
                <path d="M13,1.625 C19.2714844,1.625 24.375,6.72851562 24.375,13 C24.375,19.2714844 19.2714844,24.375 13,24.375 C6.72851562,24.375 1.625,19.2714844 1.625,13 C1.625,6.72851562 6.72851562,1.625 13,1.625 Z M13,0 C5.82080078,0 0,5.82080078 0,13 C0,20.1791992 5.82080078,26 13,26 C20.1791992,26 26,20.1791992 26,13 C26,5.82080078 20.1791992,0 13,0 Z M20.2474492,17.3465703 L20.1744258,17.1244023 C20.0030391,16.6134414 19.4380977,16.0802383 18.9175898,15.9373906 L16.995875,15.4121094 C16.4753672,15.2708867 15.7326914,15.4613164 15.3503086,15.84375 L14.6552148,16.5388437 C12.1288477,15.8548711 10.1468047,13.8728281 9.46440625,11.3464609 L10.1595,10.6513672 C10.5403594,10.2705078 10.7307891,9.52783203 10.5895664,9.00575 L10.0658086,7.08398437 C9.92458594,6.56347656 9.38818359,5.99853516 8.87722266,5.82714844 L8.65820313,5.754125 C8.14561719,5.58273828 7.4140625,5.75569922 7.03320312,6.13818359 L5.9921875,7.17919922 C5.80653125,7.36328125 5.6875,7.89171094 5.6875,7.89333594 C5.6525625,11.1973164 6.94753516,14.3790664 9.28347266,16.7165781 C11.6130625,19.046168 14.7837422,20.3395664 18.0765508,20.3109258 C18.0940195,20.3109258 18.6383438,20.1950937 18.824,20.0093867 L19.8650156,18.9683711 C20.245875,18.5890859 20.4172109,17.8575312 20.2474492,17.3465703 Z" id="Shape"></path>
            </g>
        </g>
    </g>
</svg>