<?xml version="1.0" encoding="UTF-8" standalone="no"?>
<svg width="57px" height="60px" viewBox="0 0 57 60" version="1.1" xmlns="http://www.w3.org/2000/svg" xmlns:xlink="http://www.w3.org/1999/xlink">
    <!-- Generator: Sketch 49.1 (51147) - http://www.bohemiancoding.com/sketch -->
    <title>policy</title>
    <desc>Created with Sketch.</desc>
    <defs></defs>
    <g id="Page-1" stroke="none" stroke-width="1" fill="none" fill-rule="evenodd">
        <g id="Artboard-Copy-20" transform="translate(-404.000000, -1197.000000)" fill="#C78632" fill-rule="nonzero">
            <g id="policy" transform="translate(404.000000, 1197.000000)">
                <path d="M28,41 C25.238625,41 23,43.238625 23,46 C23,48.761375 25.238625,51 28,51 C30.761375,51 33,48.761375 33,46 C32.99675,43.24 30.76,41.00325 28,41 Z M28,49 C26.343125,49 25,47.656875 25,46 C25,44.343125 26.343125,43 28,43 C29.656875,43 31,44.343125 31,46 C31,47.656875 29.656875,49 28,49 Z" id="Shape"></path>
                <path d="M38,43 L36.416,43 C36.399,42.959 36.383,42.918 36.366,42.877 L37.486,41.757 C37.876375,41.3665 37.876375,40.7335 37.486,40.343 L34.657,37.514 C34.26025,37.138875 33.63975,37.138875 33.243,37.514 L32.123,38.634 L32,38.584 L32,37 C32,36.44775 31.55225,36 31,36 L27,36 C26.44775,36 26,36.44775 26,37 L26,38.584 L25.877,38.634 L24.757,37.514 C24.3665,37.123625 23.7335,37.123625 23.343,37.514 L20.514,40.343 C20.123625,40.7335 20.123625,41.3665 20.514,41.757 L21.634,42.877 C21.617,42.918 21.6,42.959 21.584,43 L20,43 C19.44775,43 19,43.44775 19,44 L19,48 C19,48.55225 19.44775,49 20,49 L21.584,49 C21.601,49.041 21.617,49.082 21.634,49.123 L20.514,50.243 C20.123625,50.6335 20.123625,51.2665 20.514,51.657 L23.343,54.486 C23.73975,54.861125 24.36025,54.861125 24.757,54.486 L25.877,53.366 L26,53.416 L26,55 C26,55.55225 26.44775,56 27,56 L31,56 C31.55225,56 32,55.55225 32,55 L32,53.416 L32.123,53.366 L33.243,54.486 C33.6335,54.876375 34.2665,54.876375 34.657,54.486 L37.486,51.657 C37.876375,51.2665 37.876375,50.6335 37.486,50.243 L36.366,49.123 C36.383,49.082 36.4,49.041 36.416,49 L38,49 C38.55225,49 39,48.55225 39,48 L39,44 C39,43.44775 38.55225,43 38,43 Z M37,47 L35.706,47 C35.263625,47.00025 34.874,47.291 34.748,47.715 C34.631625,48.109875 34.4745,48.491625 34.279,48.854 C34.067875,49.24325 34.137875,49.725 34.451,50.038 L35.364,50.951 L33.95,52.364 L33.037,51.451 C32.724,51.137875 32.24225,51.067875 31.853,51.279 C31.490625,51.4745 31.108875,51.631625 30.714,51.748 C30.29,51.874 29.99925,52.263625 29.999,52.706 L29.999,54 L28,54 L28,52.706 C27.99975,52.263625 27.709,51.874 27.285,51.748 C26.890125,51.631625 26.508375,51.4745 26.146,51.279 C25.75675,51.067875 25.275,51.137875 24.962,51.451 L24.049,52.364 L22.636,50.95 L23.549,50.037 C23.862125,49.723875 23.932125,49.24225 23.721,48.853 C23.5255,48.490625 23.368375,48.108875 23.252,47.714 C23.125625,47.290375 22.736,47.000125 22.294,47 L21,47 L21,45 L22.294,45 C22.736375,44.99975 23.126,44.709 23.252,44.285 C23.368375,43.890125 23.5255,43.508375 23.721,43.146 C23.932125,42.75675 23.862125,42.275 23.549,41.962 L22.636,41.049 L24.05,39.635 L24.963,40.548 C25.276125,40.861125 25.75775,40.931125 26.147,40.72 C26.509375,40.5245 26.891125,40.367375 27.286,40.251 C27.70925,40.12475 27.9995,39.735625 28,39.294 L28,38 L30,38 L30,39.294 C30.00025,39.736375 30.291,40.126 30.715,40.252 C31.109875,40.368375 31.491625,40.5255 31.854,40.721 C32.24325,40.932125 32.725,40.862125 33.038,40.549 L33.951,39.636 L35.365,41.05 L34.452,41.963 C34.138875,42.276125 34.068875,42.75775 34.28,43.147 C34.4755,43.509375 34.632625,43.891125 34.749,44.286 C34.875,44.71 35.264625,45.00075 35.707,45.001 L37,45.001 L37,47 Z" id="Shape"></path>
                <path d="M46,29 C43.238625,29 41,31.238625 41,34 C41,36.761375 43.238625,39 46,39 C48.761375,39 51,36.761375 51,34 C50.99675,31.24 48.76,29.00325 46,29 Z M46,37 C44.343125,37 43,35.656875 43,34 C43,32.343125 44.343125,31 46,31 C47.656875,31 49,32.343125 49,34 C49,35.656875 47.656875,37 46,37 Z" id="Shape"></path>
                <path d="M56,30 L54.416,30 C54.399,29.959 54.383,29.918 54.366,29.877 L55.486,28.757 C55.876375,28.3665 55.876375,27.7335 55.486,27.343 L52.657,24.514 C52.26025,24.138875 51.63975,24.138875 51.243,24.514 L50.123,25.634 L50,25.584 L50,24 C50,23.44775 49.55225,23 49,23 L47,23 L47,1 C47,0.44775 46.55225,0 46,0 L1,0 C0.44775,0 0,0.44775 0,1 L0,59 C0,59.55225 0.44775,60 1,60 L46,60 C46.55225,60 47,59.55225 47,59 L47,43 L49,43 C49.55225,43 50,42.55225 50,42 L50,40.416 L50.123,40.366 L51.243,41.486 C51.6335,41.876375 52.2665,41.876375 52.657,41.486 L55.486,38.657 C55.876375,38.2665 55.876375,37.6335 55.486,37.243 L54.366,36.123 C54.383,36.082 54.4,36.041 54.416,36 L56,36 C56.55225,36 57,35.55225 57,35 L57,31 C57,30.44775 56.55225,30 56,30 Z M42,2 L45,2 L45,23 C44.44775,23 44,23.44775 44,24 L44,25.584 L43.877,25.634 L42.757,24.514 C42.5695,24.3265 42.31525,24.221 42.05,24.221 L42,24.221 L42,2 Z M40,58 L2,58 L2,2 L40,2 L40,25.858 L38.515,27.343 C38.124625,27.7335 38.124625,28.3665 38.515,28.757 L39.635,29.877 C39.618,29.918 39.601,29.959 39.585,30 L38,30 C37.44775,30 37,30.44775 37,31 L37,35 C37,35.55225 37.44775,36 38,36 L39.584,36 C39.601,36.041 39.617,36.082 39.634,36.123 L38.514,37.243 C38.123625,37.6335 38.123625,38.2665 38.514,38.657 L40,40.142 L40,58 Z M45,58 L42,58 L42,41.777 C42.283125,41.796375 42.56025,41.689375 42.757,41.485 L43.877,40.365 L44,40.415 L44,42 C44,42.55225 44.44775,43 45,43 L45,58 Z M55,34 L53.706,34 C53.263625,34.00025 52.874,34.291 52.748,34.715 C52.631625,35.109875 52.4745,35.491625 52.279,35.854 C52.067875,36.24325 52.137875,36.725 52.451,37.038 L53.364,37.951 L51.95,39.364 L51.037,38.451 C50.724,38.137875 50.24225,38.067875 49.853,38.279 C49.490625,38.4745 49.108875,38.631625 48.714,38.748 C48.29,38.874 47.99925,39.263625 47.999,39.706 L47.999,41 L46,41 L46,39.706 C45.99975,39.263625 45.709,38.874 45.285,38.748 C44.890125,38.631625 44.508375,38.4745 44.146,38.279 C43.75675,38.067875 43.275,38.137875 42.962,38.451 L42.049,39.364 L40.636,37.95 L41.549,37.037 C41.862125,36.723875 41.932125,36.24225 41.721,35.853 C41.5255,35.490625 41.368375,35.108875 41.252,34.714 C41.125625,34.290375 40.736,34.000125 40.294,34 L39,34 L39,32 L40.294,32 C40.736375,31.99975 41.126,31.709 41.252,31.285 C41.368375,30.890125 41.5255,30.508375 41.721,30.146 C41.932125,29.75675 41.862125,29.275 41.549,28.962 L40.636,28.049 L42.05,26.635 L42.963,27.548 C43.049875,27.6325 43.151625,27.70025 43.263,27.748 C43.298,27.761125 43.33375,27.772125 43.37,27.781 C43.44775,27.806625 43.528375,27.822375 43.61,27.828 C43.63,27.828 43.649,27.84 43.669,27.84 C43.706625,27.8375 43.744,27.83275 43.781,27.826 C43.81,27.826 43.839,27.826 43.868,27.815 C43.96475,27.795625 44.058125,27.761875 44.145,27.715 C44.507375,27.5195 44.889125,27.362375 45.284,27.246 C45.70625,27.121 45.997,26.734375 46,26.294 L46,25 L48,25 L48,26.294 C48.00025,26.736375 48.291,27.126 48.715,27.252 C49.109875,27.368375 49.491625,27.5255 49.854,27.721 C50.24325,27.932125 50.725,27.862125 51.038,27.549 L51.951,26.636 L53.365,28.05 L52.452,28.963 C52.138875,29.276 52.068875,29.75775 52.28,30.147 C52.4755,30.509375 52.632625,30.891125 52.749,31.286 C52.875,31.71 53.264625,32.00075 53.707,32.001 L55,32.001 L55,34 Z" id="Shape"></path>
                <rect id="Rectangle-path" x="27" y="7" width="10" height="1"></rect>
                <rect id="Rectangle-path" x="6" y="7" width="20" height="1"></rect>
                <rect id="Rectangle-path" x="14" y="11" width="23" height="1"></rect>
                <rect id="Rectangle-path" x="6" y="11" width="7" height="1"></rect>
                <rect id="Rectangle-path" x="26" y="14" width="11" height="1"></rect>
                <rect id="Rectangle-path" x="6" y="14" width="19" height="1"></rect>
                <rect id="Rectangle-path" x="6" y="19" width="31" height="1"></rect>
                <rect id="Rectangle-path" x="27" y="23" width="10" height="1"></rect>
                <rect id="Rectangle-path" x="6" y="23" width="20" height="1"></rect>
                <rect id="Rectangle-path" x="11" y="27" width="26" height="1"></rect>
                <rect id="Rectangle-path" x="6" y="27" width="6" height="1"></rect>
                <rect id="Rectangle-path" x="6" y="31" width="16" height="1"></rect>
            </g>
        </g>
    </g>
</svg>