<?xml version="1.0" encoding="UTF-8" standalone="no"?>
<svg width="68px" height="68px" viewBox="0 0 68 68" version="1.1" xmlns="http://www.w3.org/2000/svg" xmlns:xlink="http://www.w3.org/1999/xlink">
    <!-- Generator: Sketch 49.1 (51147) - http://www.bohemiancoding.com/sketch -->
    <title>recruitment</title>
    <desc>Created with Sketch.</desc>
    <defs></defs>
    <g id="Page-1" stroke="none" stroke-width="1" fill="none" fill-rule="evenodd">
        <g id="Artboard-Copy-20" transform="translate(-550.000000, -1197.000000)" fill="#C79332" fill-rule="nonzero">
            <g id="recruitment" transform="translate(550.000000, 1197.000000)">
                <path d="M61.2177969,35.5906299 C61.8186406,34.6978083 62.1697969,33.6229086 62.1697969,32.4673515 L62.1697969,31.3997723 C62.1697969,28.3114987 59.6625625,25.7988741 56.5809141,25.7988741 C55.0433438,25.7988741 53.6488125,26.4245679 52.6373125,27.4350482 C50.0201094,19.634572 42.6544609,14 34,14 C25.3455391,14 17.9798906,19.6344389 15.3626875,27.4350482 C14.3511875,26.4245679 12.9567891,25.7988741 11.4190859,25.7988741 C8.3374375,25.7988741 5.83020312,28.3114987 5.83020312,31.3997723 L5.83020312,32.4673515 C5.83020312,33.6229086 6.18135937,34.6978083 6.78220312,35.5906299 C2.91350781,36.4075856 0,39.8541591 0,43.9706149 L0,46.6504106 C0,47.3853779 0.594734375,47.9813909 1.328125,47.9813909 L8.234375,47.9813909 C8.96776563,47.9813909 9.5625,47.3853779 9.5625,46.6504106 C9.5625,45.9154433 8.96776563,45.3194303 8.234375,45.3194303 L2.65625,45.3194303 L2.65625,43.9706149 C2.65625,40.7159688 5.29842187,38.0681166 8.54608594,38.0681166 L14.8319688,38.0681166 C15.3417031,40.3149444 16.2351328,42.4173609 17.4405391,44.3012304 L2.28676563,59.4875824 C0.346375,61.4322778 0.346375,64.5966834 2.28689844,66.5415118 C3.25722656,67.513926 4.5315625,68 5.80616406,68 C7.08076562,68 8.35536719,67.5137929 9.32569531,66.5415118 L17.68,58.1691134 C18.1986328,57.6493656 18.1986328,56.8065888 17.68,56.2867079 C17.1612344,55.7670932 16.3205312,55.7670932 15.8016328,56.2867079 L7.44746094,64.6591064 C6.54234375,65.5660363 5.06998438,65.5659032 4.165,64.6592395 C3.26014844,63.7523095 3.26014844,62.2766516 4.165,61.3697217 L19.0409297,46.4619438 C22.6490469,50.7027132 28.0161328,53.3970166 34,53.3970166 C43.3404375,53.3970166 51.1792969,46.8339528 53.1680312,38.0681166 L59.4539141,38.0681166 C62.7015781,38.0681166 65.34375,40.7159688 65.34375,43.9706149 L65.34375,45.3194303 L52.859375,45.3194303 C52.1259844,45.3194303 51.53125,45.9154433 51.53125,46.6504106 C51.53125,47.3853779 52.1259844,47.9813909 52.859375,47.9813909 L66.671875,47.9813909 C67.4052656,47.9813909 68,47.3853779 68,46.6504106 L68,43.9706149 C68,39.8541591 65.0864922,36.4075856 61.2177969,35.5906299 Z M14.3517188,32.4674846 C14.3517188,34.0879531 13.0362109,35.4062891 11.4190859,35.4062891 C9.80196094,35.4062891 8.48645312,34.0879531 8.48645312,32.4674846 L8.48645312,31.3999054 C8.48645312,29.7793037 9.80196094,28.4609678 11.4190859,28.4609678 C13.0362109,28.4609678 14.3517188,29.7793037 14.3517188,31.3999054 L14.3517188,32.4674846 Z M34,50.735056 C24.6262266,50.735056 17,43.0924341 17,33.6985083 C17,24.3045825 24.6262266,16.6619606 34,16.6619606 C43.3737734,16.6619606 51,24.3045825 51,33.6985083 C51,43.0924341 43.3737734,50.735056 34,50.735056 Z M59.5134141,32.4674846 C59.5134141,34.0879531 58.1979062,35.4062891 56.5807812,35.4062891 C54.9636562,35.4062891 53.6481484,34.0879531 53.6481484,32.4674846 L53.6481484,31.3999054 C53.6481484,29.7793037 54.9636562,28.4609678 56.5807812,28.4609678 C58.1979062,28.4609678 59.5134141,29.7793037 59.5134141,31.3999054 L59.5134141,32.4674846 Z" id="Shape"></path>
                <path d="M34.5,19 C26.5045926,19 20,25.5045926 20,33.5 C20,37.6499537 21.7528889,41.3978009 24.5564907,44.0433796 C24.6044213,44.0952037 24.6558426,44.1440741 24.7122315,44.1883796 C27.2935,46.554162 30.7309398,48 34.5,48 C38.2690602,48 41.7065,46.5540278 44.2877685,44.1883796 C44.3441574,44.1442083 44.3955787,44.0952037 44.4435093,44.0433796 C47.2471111,41.3978009 49,37.6499537 49,33.5 C49,25.5047269 42.4954074,19 34.5,19 Z M34.5,45.3148148 C31.7392269,45.3148148 29.1968935,44.3627824 27.1832731,42.7700648 C28.6097778,40.0709167 31.38975,38.3726713 34.5,38.3726713 C37.61025,38.3726713 40.3902222,40.0709167 41.8167269,42.7700648 C39.8031065,44.3627824 37.2607731,45.3148148 34.5,45.3148148 Z M31.6707546,32.8582407 L31.6707546,31.8151806 C31.6707546,30.255088 32.9399074,28.9859352 34.5,28.9859352 C36.0600926,28.9859352 37.3292454,30.255088 37.3292454,31.8151806 L37.3292454,32.8582407 C37.3292454,34.4183333 36.0600926,35.6874861 34.5,35.6874861 C32.9399074,35.6874861 31.6707546,34.4183333 31.6707546,32.8582407 Z M43.7806713,40.8035694 C42.5507222,38.8411019 40.7504398,37.3445139 38.643375,36.491162 C39.495787,35.5200648 40.0144306,34.2490324 40.0144306,32.858375 L40.0144306,31.8153148 C40.0144306,28.7747454 37.5405694,26.3008843 34.5,26.3008843 C31.4594306,26.3008843 28.9855694,28.7747454 28.9855694,31.8153148 L28.9855694,32.858375 C28.9855694,34.2490324 29.5040787,35.5200648 30.356625,36.491162 C28.2495602,37.3446481 26.449412,38.8411019 25.2193287,40.8035694 C23.6329213,38.7920972 22.6851852,36.2547315 22.6851852,33.5 C22.6851852,26.985338 27.985338,21.6851852 34.5,21.6851852 C41.014662,21.6851852 46.3148148,26.985338 46.3148148,33.5 C46.3148148,36.2547315 45.3670787,38.7920972 43.7806713,40.8035694 Z" id="Shape"></path>
                <path d="M21.5605,52.4395 C21.2815,52.1605 20.8945,52 20.5,52 C20.1055,52 19.7185,52.1605 19.4395,52.4395 C19.16065,52.7185 19,53.1055 19,53.5 C19,53.8945 19.1605,54.2815 19.4395,54.5605 C19.7185,54.83935 20.1055,55 20.5,55 C20.8945,55 21.2815,54.8395 21.5605,54.5605 C21.83935,54.2815 22,53.8945 22,53.5 C22,53.1055 21.8395,52.7185 21.5605,52.4395 Z" id="Shape"></path>
                <path d="M34.5,0 C33.6717,0 33,0.580223604 33,1.29572042 L33,5.70427958 C33,6.41990597 33.6717,7 34.5,7 C35.3283,7 36,6.4197764 36,5.70427958 L36,1.29572042 C36,0.580223604 35.3283,0 34.5,0 Z" id="Shape"></path>
                <path d="M35.56035,9.4395 C35.2815,9.1605 34.89585,9 34.5,9 C34.10535,9 33.7185,9.16035 33.4395,9.4395 C33.1605,9.71865 33,10.1055 33,10.5 C33,10.8945 33.16035,11.2815 33.4395,11.56035 C33.7185,11.83935 34.10535,12 34.5,12 C34.896,12 35.2815,11.8395 35.56035,11.56035 C35.83935,11.2815 36,10.8945 36,10.5 C36,10.1055 35.8395,9.7185 35.56035,9.4395 Z" id="Shape"></path>
                <path d="M45.610295,5.38961039 C45.0905553,4.87012987 44.2482735,4.87012987 43.7284007,5.38961039 L41.389705,7.72833724 C40.8700983,8.24795082 40.8700983,9.0905099 41.389705,9.61025655 C41.6497079,9.86999681 41.9900802,10 42.3307187,10 C42.6713571,10 43.0117294,9.86999681 43.2715993,9.61025655 L45.610295,7.2715297 C46.1299017,6.75191612 46.1299017,5.90935704 45.610295,5.38961039 Z" id="Shape"></path>
                <path d="M26.6120398,7.73850841 L24.2614285,5.38786594 C23.7440158,4.87071135 22.9055053,4.87071135 22.3879602,5.38786594 C21.8706799,5.905153 21.8706799,6.74393959 22.3879602,7.26135912 L24.738704,9.61200159 C24.9974103,9.87057888 25.3363911,10 25.6753719,10 C26.0143527,10 26.3533335,9.87057888 26.6120398,9.61200159 C27.1293201,9.09471453 27.1293201,8.25592794 26.6120398,7.73850841 Z" id="Shape"></path>
            </g>
        </g>
    </g>
</svg>