<?xml version="1.0" encoding="UTF-8" standalone="no"?>
<svg width="50px" height="52px" viewBox="0 0 50 52" version="1.1" xmlns="http://www.w3.org/2000/svg" xmlns:xlink="http://www.w3.org/1999/xlink">
    <!-- Generator: Sketch 49.1 (51147) - http://www.bohemiancoding.com/sketch -->
    <title>head-with-members-hierarchy</title>
    <desc>Created with Sketch.</desc>
    <defs></defs>
    <g id="Page-1" stroke="none" stroke-width="1" fill="none" fill-rule="evenodd">
        <g id="Artboard-Copy-20" transform="translate(-705.000000, -1197.000000)" fill="#C79332" fill-rule="nonzero">
            <g id="head-with-members-hierarchy" transform="translate(705.000000, 1197.000000)">
                <path d="M8.72707698,45.392025 C9.99569352,44.5965023 10.8660008,43.0263163 10.8660008,41.6133574 C10.8660008,39.617641 9.13571386,38 7.00013956,38 C4.86456527,38 3.13511574,39.617641 3.13511574,41.6133574 C3.13511574,43.0263163 4.00542297,44.5951986 5.27403952,45.392025 C2.24526985,46.1080215 0,48.5660328 0,50.3852271 C0,51.4615685 3.50048847,51.9984356 6.99986044,51.9984356 L5.03845924,50.1677686 L6.69031242,46.4396849 L6.67244851,46.4396849 L6.03102259,45.7539344 C6.34029148,45.8571881 6.66407481,45.920809 6.99986044,45.920809 C7.33648344,45.920809 7.65747553,45.8587525 7.96786092,45.7554989 L7.32727236,46.4412493 L7.31024583,46.4412493 L8.96154076,50.1693331 L7.00013956,52 C10.5023028,52 14,51.4618293 14,50.3867916 C14,48.5660328 11.7550093,46.1114112 8.72707698,45.392025 Z" id="Shape"></path>
                <path d="M26.727599,45.392025 C27.9957331,44.5965023 28.8658133,43.0263163 28.8658133,41.6133574 C28.8658133,39.617641 27.1365395,38 25.0005583,38 C22.8645771,38 21.1344658,39.617641 21.1344658,41.6133574 C21.1344658,43.0263163 22.004546,44.5951986 23.2735176,45.392025 C20.2454042,46.1080215 18,48.5660328 18,50.3852271 C18,51.4615685 21.4998604,51.9984356 25.0002791,51.9984356 L23.0387606,50.1677686 L24.6901543,46.4396849 L24.6731268,46.4396849 L24.0308251,45.7539344 C24.3409499,45.8571881 24.6647526,45.920809 25.0005583,45.920809 C25.336364,45.920809 25.6582127,45.8587525 25.9686167,45.7554989 L25.3277107,46.4412493 L25.3106831,46.4412493 L26.9617977,50.1693331 L25.0005583,52 C28.5020936,52 32,51.4618293 32,50.3867916 C32.0002791,48.5660328 29.7565498,46.1114112 26.727599,45.392025 Z" id="Shape"></path>
                <path d="M44.7262396,45.3928512 C45.9940188,44.5972396 46.864326,43.026878 46.864326,41.6137612 C46.864326,39.6178218 45.1357139,38 42.9990231,38 C40.8645653,38 39.1339992,39.6178218 39.1339992,41.6137612 C39.1339992,43.026878 40.0043065,44.5959357 41.2720857,45.3928512 C38.2449907,46.1089277 36,48.5672137 36,50.3866113 C36,51.463073 39.499372,52 42.9987439,52 L41.0376219,50.1691285 L42.6897542,46.4406281 L42.6724485,46.4406281 L42.0299061,45.7529756 C42.339175,45.8562408 42.6624001,45.9198689 42.9987439,45.9198689 C43.3353669,45.9198689 43.6583129,45.8580662 43.9678609,45.754801 L43.3269932,46.4406281 L43.308292,46.4406281 L44.9604243,50.1691285 L42.9990231,52 C46.5003489,52 50,51.4617691 50,50.3866113 C50,48.5672137 47.7547301,46.1123177 44.7262396,45.3928512 Z" id="Shape"></path>
                <path d="M6.84100104,36 C7.30492721,36 7.68200208,35.5996252 7.68200208,35.1051121 L7.68200208,25.7110852 L23.6591338,25.7110852 L23.6591338,35.1051121 C23.6591338,35.5999122 24.035939,36 24.5001349,36 C24.9643308,36 25.3411359,35.5996252 25.3411359,35.1051121 L25.3411359,25.7110852 L41.3182676,25.7110852 L41.3182676,35.1051121 C41.3182676,35.5999122 41.695882,36 42.1592687,36 C42.6223857,36 43,35.5996252 43,35.1051121 L43,24.8159103 C43,24.3213972 42.6223857,23.9213094 42.1592687,23.9213094 L25.3411359,23.9213094 L25.3411359,19.8948879 C25.3411359,19.4000878 24.9643308,19 24.5001349,19 C24.035939,19 23.6591338,19.4003748 23.6591338,19.8948879 L23.6591338,23.9213094 L6.84100104,23.9213094 C6.37707487,23.9213094 6,24.3216842 6,24.8159103 L6,35.1051121 C6.00026972,35.5999122 6.37707487,36 6.84100104,36 Z" id="Shape"></path>
                <path d="M17,15.9622062 C17,17.3210188 20.7483272,18 24.5,18 C28.2514154,18 32,17.3210188 32,15.9622062 C32,14.2202623 30.6115877,12.0183909 28.5257523,10.6595783 C29.4928799,10.5235553 30.2451189,10.2713461 30.2451189,10.2713461 C30.2451189,10.2713461 28.6405312,9.44557346 28.6405312,4.88512074 C28.6405312,0.324668024 25.7708026,-0.599721262 24.5,0.320700688 C23.2626531,-0.562881713 20.3581821,0.320700688 20.3581821,4.88313708 C20.3581821,9.44557346 18.7535943,10.2693624 18.7535943,10.2693624 C18.7535943,10.2693624 19.5066054,10.5232719 20.4703874,10.6575946 C18.3876403,12.0166906 17,14.2202623 17,15.9622062 Z M24.5,1.79258234 C25.8029716,3.61500646 27.3082215,3.92899277 27.3082215,5.48277157 C27.3082215,7.03570023 26.2301753,10.320371 24.5,10.320371 C24.7740795,10.320371 25.0391518,10.2634114 25.299077,10.1823644 C25.3374224,10.2109859 25.3711354,10.2447083 25.4112823,10.2696458 L24.8494836,10.9780987 L24.832241,10.9780987 L24.8430498,11.0081371 C24.7295577,11.0004858 24.6188965,10.9780987 24.5012868,10.9780987 C24.3844491,10.9780987 24.2732732,10.9987855 24.1597811,11.0081371 L24.1705899,10.9780987 L24.1533473,10.9780987 L23.5900045,10.2696458 C23.629894,10.2447083 23.663607,10.2109859 23.7019524,10.1823644 C23.962135,10.2634114 24.2269499,10.320371 24.5028309,10.320371 C22.7726555,10.320371 21.689977,7.03570023 21.6946093,5.48277157 C21.6979549,3.00658715 23.1453008,2.84279285 24.5,1.79258234 Z" id="Shape"></path>
            </g>
        </g>
    </g>
</svg>