<?xml version="1.0" encoding="UTF-8" standalone="no"?>
<svg width="58px" height="58px" viewBox="0 0 58 58" version="1.1" xmlns="http://www.w3.org/2000/svg" xmlns:xlink="http://www.w3.org/1999/xlink">
    <!-- Generator: Sketch 49.1 (51147) - http://www.bohemiancoding.com/sketch -->
    <title>Group 10</title>
    <desc>Created with Sketch.</desc>
    <defs></defs>
    <g id="Page-1" stroke="none" stroke-width="1" fill="none" fill-rule="evenodd">
        <g id="Artboard-Copy-12" transform="translate(-319.000000, -564.000000)" fill-rule="nonzero">
            <g id="Group-10" transform="translate(319.000000, 564.000000)">
                <path d="M10.5,6 C8.019,6 6,7.79466667 6,10 C6,12.2053333 8.019,14 10.5,14 C12.981,14 15,12.2053333 15,10 C15,7.79466667 12.981,6 10.5,6 Z M10.5,12.2222222 C9.122,12.2222222 8,11.2257778 8,10 C8,8.77422222 9.122,7.77777778 10.5,7.77777778 C11.878,7.77777778 13,8.77422222 13,10 C13,11.2257778 11.878,12.2222222 10.5,12.2222222 Z" id="Shape" fill="#4F4F4F"></path>
                <circle id="Oval" fill="#4F4F4F" cx="48" cy="9" r="1"></circle>
                <circle id="Oval" fill="#4F4F4F" cx="44" cy="9" r="1"></circle>
                <circle id="Oval" fill="#4F4F4F" cx="50" cy="12" r="1"></circle>
                <circle id="Oval" fill="#4F4F4F" cx="46" cy="12" r="1"></circle>
                <circle id="Oval" fill="#4F4F4F" cx="40" cy="9" r="1"></circle>
                <circle id="Oval" fill="#4F4F4F" cx="42" cy="12" r="1"></circle>
                <circle id="Oval" fill="#4F4F4F" cx="37" cy="9" r="1"></circle>
                <circle id="Oval" fill="#4F4F4F" cx="38" cy="12" r="1"></circle>
                <circle id="Oval" fill="#4F4F4F" cx="33" cy="9" r="1"></circle>
                <circle id="Oval" fill="#4F4F4F" cx="35" cy="12" r="1"></circle>
                <path d="M10.5,24 C8.019,24 6,25.7946667 6,28 C6,30.2053333 8.019,32 10.5,32 C12.981,32 15,30.2053333 15,28 C15,25.7946667 12.981,24 10.5,24 Z M10.5,30.2222222 C9.122,30.2222222 8,29.2257778 8,28 C8,26.7742222 9.122,25.7777778 10.5,25.7777778 C11.878,25.7777778 13,26.7742222 13,28 C13,29.2257778 11.878,30.2222222 10.5,30.2222222 Z" id="Shape" fill="#4F4F4F"></path>
                <path d="M10.5,43 C8.019,43 6,44.7946667 6,47 C6,49.2053333 8.019,51 10.5,51 C12.981,51 15,49.2053333 15,47 C15,44.7946667 12.981,43 10.5,43 Z M10.5,49.2222222 C9.122,49.2222222 8,48.2257778 8,47 C8,45.7742222 9.122,44.7777778 10.5,44.7777778 C11.878,44.7777778 13,45.7742222 13,47 C13,48.2257778 11.878,49.2222222 10.5,49.2222222 Z" id="Shape" fill="#4F4F4F"></path>
                <path d="M58,15.9121659 L58,4.47311252 C58,2.00649383 56.0019,0 53.5456,0 L4.4544,0 C1.9981,0 0,2.00649383 0,4.47311252 L0,15.9111952 C0,17.3371939 0.679566667,18.5942861 1.71776667,19.4135801 C0.679566667,20.2338449 0,21.4919078 0,22.9169358 L0,34.3550185 C0,35.7810173 0.679566667,37.0381094 1.71776667,37.8574035 C0.679566667,38.6776682 0,39.9357311 0,41.3607592 L0,52.7988418 C0,55.2654605 1.9981,57.2719543 4.4544,57.2719543 L31.4002333,57.2719543 C33.9928333,57.7514937 36.8348333,58 39.6333333,58 C48.0162667,58 56.8554667,55.8168338 57.8985,51.6388224 C57.9632667,51.5097156 58,51.3621651 58,51.2058779 L58,42.46933 L58,42.1053072 L58,41.7412844 L58,33.7327821 L58,33.3687593 L58,33.0047365 L58,24.6322114 L58,24.2681886 C58,24.1225795 57.9642333,23.9876483 57.9072,23.8643659 C57.5717667,22.4432208 56.3141333,21.2463137 54.4639333,20.2872349 C56.4804,19.8610855 58,18.0623274 58,15.9121659 Z M1.93333333,34.3559892 L1.93333333,22.9169358 C1.93333333,21.5210296 3.06433333,20.3852784 4.4544,20.3852784 L24.6190667,20.3852784 C22.8703667,21.3278549 21.6833,22.4907865 21.3594667,23.8643659 C21.3024333,23.9886191 21.2666667,24.1225795 21.2666667,24.2681886 L21.2666667,24.6322114 L21.2666667,33.0047365 L21.2666667,33.3687593 L21.2666667,33.7327821 L21.2666667,36.8876467 L4.4544,36.8876467 C3.06433333,36.8876467 1.93333333,35.7518954 1.93333333,34.3559892 Z M23.8051333,28.3986343 C23.8486333,28.4267854 23.8950333,28.4549365 23.9395,28.4830876 C24.1096333,28.5898676 24.2865333,28.6947062 24.4711667,28.7976033 C24.5243333,28.8267251 24.5755667,28.8568177 24.6287333,28.8849688 C24.8539667,29.0063097 25.0879,29.1247385 25.3315,29.2383136 C25.3701667,29.2567574 25.4117333,29.2742305 25.4504,29.2917036 C25.6640333,29.3897471 25.8834667,29.4839077 26.1096667,29.5761268 C26.1763667,29.6033072 26.2421,29.6304875 26.3088,29.6566972 C26.5756,29.7615358 26.8472333,29.8644329 27.1285333,29.9615056 C27.144,29.9663593 27.1594667,29.9712129 27.1749333,29.9770373 C27.4436667,30.0692564 27.7201333,30.1575926 28.0014333,30.2430166 C28.0768333,30.2663141 28.1532,30.2886408 28.2295667,30.3109675 C28.5079667,30.3925087 28.7902333,30.4721083 29.0792667,30.5478251 C29.1024667,30.5536494 29.1247,30.5604445 29.1479,30.5662689 C29.4591667,30.6468393 29.7772,30.7215853 30.1000667,30.7943899 C30.1812667,30.8128337 30.2634333,30.8303068 30.3446333,30.8477799 C30.6211,30.907965 30.9004667,30.9652379 31.1827333,31.0195987 C31.2388,31.0302767 31.2948667,31.0419254 31.3509333,31.0526034 C31.6825,31.11473 32.0179333,31.1720029 32.3572333,31.2263636 C32.4374667,31.2389831 32.5196333,31.2516025 32.5998667,31.264222 C32.8811667,31.3079047 33.1644,31.3486753 33.4505333,31.3865337 C33.5288333,31.3972117 33.6061667,31.4078897 33.6854333,31.4175969 C34.0315,31.4612797 34.3795,31.5020502 34.7304,31.5389379 C34.8009667,31.5467037 34.8725,31.5525281 34.9430667,31.5593232 C35.2379,31.588445 35.5346667,31.6146546 35.8314333,31.6389228 C35.9213333,31.6457179 36.0102667,31.6534837 36.1001667,31.6602788 C36.4549333,31.6864885 36.8116333,31.7097859 37.1683333,31.7282298 C37.2186,31.7311419 37.2698333,31.7321127 37.3210667,31.7350249 C37.6352333,31.7505565 37.9503667,31.7622052 38.2655,31.7709418 C38.3602333,31.773854 38.4549667,31.7767661 38.5506667,31.7787076 C38.9112333,31.7864734 39.2718,31.7922978 39.6314,31.7922978 C39.991,31.7922978 40.3515667,31.7864734 40.7121333,31.7787076 C40.8068667,31.7767661 40.9016,31.773854 40.9973,31.7709418 C41.3124333,31.7622052 41.6266,31.7505565 41.9417333,31.7350249 C41.9929667,31.7321127 42.0432333,31.7311419 42.0944667,31.7282298 C42.4511667,31.7097859 42.8078667,31.6864885 43.1626333,31.6602788 C43.2525333,31.6534837 43.3414667,31.6466886 43.4313667,31.6389228 C43.7291,31.6156254 44.0249,31.588445 44.3197333,31.5593232 C44.3903,31.5525281 44.4618333,31.545733 44.5324,31.5389379 C44.8833,31.5020502 45.2313,31.4622504 45.5773667,31.4175969 C45.6556667,31.4078897 45.7339667,31.3972117 45.8122667,31.3865337 C46.0974333,31.3486753 46.3816333,31.3079047 46.6629333,31.264222 C46.7441333,31.2516025 46.8253333,31.2399538 46.9055667,31.2263636 C47.2448667,31.1720029 47.5803,31.11473 47.9118667,31.0526034 C47.9689,31.0419254 48.024,31.0302767 48.0800667,31.0195987 C48.3633,30.9652379 48.6426667,30.907965 48.9181667,30.8477799 C49.0003333,30.8293361 49.0815333,30.811863 49.1627333,30.7943899 C49.4846333,30.7215853 49.8036333,30.6468393 50.1149,30.5662689 C50.1381,30.5604445 50.1603333,30.5536494 50.1835333,30.5478251 C50.4725667,30.473079 50.7548333,30.3934794 51.0332333,30.3109675 C51.1096,30.2886408 51.1859667,30.2663141 51.2613667,30.2430166 C51.5426667,30.1575926 51.8191333,30.0692564 52.0878667,29.9770373 C52.1033333,29.9721836 52.1188,29.96733 52.1342667,29.9615056 C52.4155667,29.8634621 52.6881667,29.7615358 52.954,29.6566972 C53.0216667,29.6304875 53.0874,29.6033072 53.1531333,29.5761268 C53.3793333,29.4839077 53.5987667,29.3897471 53.8124,29.2917036 C53.8520333,29.2732598 53.8926333,29.2567574 53.9313,29.2383136 C54.1749,29.1247385 54.4078667,29.0063097 54.6340667,28.8849688 C54.6882,28.855847 54.7394333,28.8267251 54.7916333,28.7976033 C54.9753,28.6956769 55.1522,28.5908383 55.3233,28.4830876 C55.3677667,28.4549365 55.4141667,28.4277561 55.4576667,28.3986343 C55.6577667,28.2685568 55.8472333,28.1345964 56.0270333,27.9967531 C56.0386333,27.9880165 56.0521667,27.9802507 56.0637667,27.9715142 L56.0637667,32.8135032 C56.0405667,32.9261075 56.0251,33.0406534 56.0434667,33.15617 C56.057,33.2270331 56.0666667,33.2969255 56.0666667,33.3687593 C56.0666667,33.4755393 56.0367,33.5842608 56.0106,33.6920116 C55.9903,33.7754942 55.9642,33.8599474 55.9294,33.94343 C55.8984667,34.0162346 55.8598,34.0900099 55.8172667,34.1628144 C55.7757,34.235619 55.7302667,34.3093943 55.6780667,34.3821989 C55.6036333,34.4831545 55.5195333,34.5841102 55.4238333,34.6850659 C55.3880667,34.723895 55.3523,34.7627241 55.3136333,34.8015532 C53.2672,36.7896032 47.2284333,38.5854491 39.6343,38.5854491 C32.045,38.5854491 26.0091333,36.7915446 23.9588333,34.8044653 C23.9163,34.7617533 23.8776333,34.7200121 23.8389667,34.6773 C23.7481,34.5802273 23.6659333,34.4831545 23.5944,34.3860818 C23.5393,34.3093943 23.4909667,34.2327068 23.4474667,34.1550486 C23.4078333,34.086127 23.3711,34.0172053 23.3411333,33.9473129 C23.3034333,33.8589767 23.2773333,33.7716112 23.2560667,33.6842458 C23.2299667,33.5794072 23.2,33.4735979 23.2,33.3687593 C23.2,33.2998377 23.2087,33.230916 23.2203,33.1629651 C23.2406,33.0367705 23.2280333,32.9105759 23.2,32.789235 L23.2,27.9705434 C23.2116,27.97928 23.2251333,27.9870458 23.2367333,27.9957824 C23.4155667,28.1336257 23.6050333,28.2675861 23.8051333,28.3986343 Z M55.9284333,42.6799779 C55.8975,42.7527825 55.8588333,42.8265578 55.8163,42.8993623 C55.7747333,42.9721669 55.7293,43.0459422 55.6771,43.1187468 C55.6026667,43.2197024 55.5185667,43.3206581 55.4228667,43.4216138 C55.3871,43.4604429 55.3513333,43.499272 55.3126667,43.5381011 C53.2662333,45.5261511 47.2274667,47.321997 39.6333333,47.321997 C32.0440333,47.321997 26.0081667,45.5280925 23.9578667,43.5410132 C23.9153333,43.4983012 23.8766667,43.4565599 23.838,43.4138479 C23.7471333,43.3167752 23.6649667,43.2197024 23.5934333,43.1226297 C23.5383333,43.0459422 23.49,42.9692547 23.4465,42.8915965 C23.4068667,42.8226749 23.3701333,42.7537532 23.3401667,42.6838608 C23.3024667,42.5955246 23.2763667,42.5081591 23.2551,42.4207937 C23.2328667,42.3295453 23.2096667,42.2373261 23.2067667,42.1460778 L23.2067667,42.0295905 C23.2106333,41.9859077 23.2125667,41.942225 23.2193333,41.8985422 C23.2328667,41.8150597 23.2145,41.7335186 23.2058,41.6510067 L23.2,36.8876467 L23.2,36.7070913 C23.2386667,36.7371839 23.2841,36.765335 23.3247,36.7944568 C23.4465,36.8857052 23.5741,36.9750121 23.7046,37.0633483 C23.8109333,37.1342115 23.9211333,37.2041038 24.0332667,37.2739962 C24.2063,37.3807762 24.3803,37.4865855 24.5659,37.5885119 C24.5678333,37.5894827 24.5697667,37.5904534 24.5707333,37.5914241 C26.5872,38.6951413 29.3596,39.4921087 32.4249,39.9745602 C32.4481,39.9784432 32.4713,39.9813553 32.4945,39.9852382 C33.4834,40.1395839 34.4984,40.2599541 35.5308,40.3482903 C35.7502333,40.3667342 35.9687,40.3861487 36.1900667,40.4016804 C36.4056333,40.417212 36.6212,40.4308022 36.8377333,40.4424509 C37.1296667,40.4589533 37.4216,40.4735142 37.7135333,40.4851629 C37.8836667,40.491958 38.0538,40.4997238 38.2249,40.5045775 C38.6956667,40.5181677 39.1654667,40.5278749 39.6343,40.5278749 C40.1021667,40.5278749 40.5719667,40.5191384 41.0408,40.5055482 C41.2128667,40.5006946 41.3839667,40.4929288 41.5560333,40.4861337 C41.8460333,40.4744849 42.1350667,40.4608947 42.4241,40.4443924 C42.6425667,40.4317729 42.8600667,40.4181827 43.0775667,40.4026511 C43.2950667,40.3871194 43.5096667,40.3686756 43.7262,40.3502318 C44.7682667,40.2618956 45.7929333,40.1395839 46.7905333,39.9842675 C46.8050333,39.9823261 46.8205,39.9794139 46.835,39.9774724 C50.1845,39.4513381 53.1802,38.5475908 55.2266333,37.2798206 C55.3378,37.2108989 55.448,37.1419773 55.5533667,37.0711142 C55.6838667,36.9837487 55.8114667,36.8944417 55.9323,36.8031934 C55.9758,36.7711593 56.0251,36.7410668 56.0676333,36.7080621 L56.0676333,41.550051 C56.0444333,41.6626554 56.0289667,41.7772013 56.0473333,41.8927179 C56.057,41.963581 56.0666667,42.0334734 56.0666667,42.1053072 C56.0666667,42.2120872 56.0367,42.3208087 56.0106,42.4285595 C55.9893333,42.512042 55.9642,42.5964953 55.9284333,42.6799779 Z M4.4544,55.33147 C3.06433333,55.33147 1.93333333,54.1957188 1.93333333,52.7998125 L1.93333333,41.3607592 C1.93333333,39.964853 3.06433333,38.8291017 4.4544,38.8291017 L21.2666667,38.8291017 L21.2666667,41.7412844 L21.2666667,42.1053072 L21.2666667,42.46933 L21.2666667,51.2058779 L21.2666667,52.1766055 L21.5528,52.1766055 C21.5682667,52.2125224 21.5905,52.2474686 21.6079,52.2833855 C21.6417333,52.3561901 21.6794333,52.4270532 21.7181,52.498887 C21.7973667,52.6425547 21.8872667,52.7842809 21.9868333,52.9240657 C22.0854333,53.0648212 22.1966,53.200723 22.3145333,53.3356542 C22.3744667,53.4036051 22.4344,53.4705853 22.4991667,53.5375655 C22.8694,53.9210029 23.3140667,54.2801721 23.8273667,54.6160438 C23.8447667,54.6276925 23.8631333,54.6393412 23.8815,54.65099 C24.2527,54.8907597 24.6538667,55.1179099 25.0879,55.3324407 L4.4544,55.3324407 L4.4544,55.33147 Z M56.0666667,50.9573717 C56.0589333,50.9874642 56.0521667,51.0185275 56.0473333,51.0486201 C55.6519667,53.4686438 48.9616667,56.0595156 39.6333333,56.0595156 C36.6569667,56.0595156 33.9541667,55.794507 31.6332,55.3567089 L31.6341667,55.3489431 C26.8269333,54.4354885 24.1666667,52.8930024 23.4223333,51.5922275 C23.4213667,51.5912568 23.4204,51.590286 23.4204,51.5883446 C23.3865667,51.5281595 23.3624,51.4689451 23.3363,51.4107014 C23.2860333,51.2893605 23.2386667,51.1689903 23.2193333,51.0486201 L23.2116,45.4523758 C23.2464,45.4795561 23.2879667,45.5047951 23.3237333,45.5319754 C23.4455333,45.6232238 23.5731333,45.7125308 23.7036333,45.800867 C23.8099667,45.8717301 23.9201667,45.9416225 24.0323,46.0115148 C24.2053333,46.1182949 24.3793333,46.2241042 24.5649333,46.3260306 C24.5668667,46.3270013 24.5688,46.327972 24.5697667,46.3289427 C26.5862333,47.43266 29.3586333,48.2296273 32.4239333,48.7120789 C32.4471333,48.7159618 32.4703333,48.718874 32.4935333,48.7227569 C33.4824333,48.8771025 34.4974333,48.9974728 35.5298333,49.085809 C35.7492667,49.1042528 35.9677333,49.1236673 36.1891,49.139199 C36.4046667,49.1547306 36.6202333,49.1683208 36.8367667,49.1799695 C37.1287,49.1964719 37.4206333,49.2110328 37.7125667,49.2226816 C37.8827,49.2294766 38.0528333,49.2372425 38.2239333,49.2420961 C38.6947,49.2556863 39.1645,49.2653936 39.6333333,49.2653936 C40.1012,49.2653936 40.571,49.256657 41.0398333,49.2430668 C41.2119,49.2382132 41.383,49.2304474 41.5550667,49.2236523 C41.8450667,49.2120035 42.1341,49.1984134 42.4231333,49.181911 C42.6416,49.1692915 42.8591,49.1557014 43.0766,49.1401697 C43.2941,49.1246381 43.5087,49.1061942 43.7252333,49.0877504 C44.7673,48.9994142 45.7919667,48.8771025 46.7895667,48.7217861 C46.8040667,48.7198447 46.8195333,48.7169325 46.8340333,48.714991 C50.1835333,48.1888567 53.1792333,47.2851094 55.2256667,46.0173392 C55.3368333,45.9484175 55.4470333,45.8794959 55.5524,45.8086328 C55.6829,45.7212673 55.8105,45.6319604 55.9313333,45.540712 C55.9748333,45.508678 56.0241333,45.4785854 56.0666667,45.4455807 L56.0666667,50.9573717 Z M56.0666667,24.6322114 C56.0666667,27.0949472 49.0380333,29.849872 39.6333333,29.849872 C30.2276667,29.849872 23.2,27.0949472 23.2,24.6322114 C23.2,24.5079583 23.2299667,24.3817637 23.2657333,24.2555691 C23.3044,24.1303453 23.3566,24.0022092 23.4339333,23.8701903 C23.4368333,23.8643659 23.4397333,23.8585416 23.4426333,23.8527172 C23.7645333,23.3129927 24.4131667,22.7324976 25.4117333,22.1723878 C25.4542667,22.1490904 25.4977667,22.1257929 25.5412667,22.1024954 C25.7123667,22.0093056 25.8931333,21.9170865 26.0835667,21.8258381 C26.3049333,21.7219702 26.5321,21.6181024 26.7757,21.5181175 C26.8230667,21.4977322 26.8723667,21.4783176 26.9216667,21.4589031 C28.0449333,21.0094562 29.3982667,20.6104872 30.9217333,20.2843228 C31.3983,20.1833671 31.8835667,20.0882358 32.3823667,20.0047532 C32.5148,19.9824265 32.6443333,19.959129 32.7787,19.937773 C37.1064667,19.267971 42.1553667,19.267971 46.4831333,19.937773 C46.6194333,19.959129 46.7509,19.9833972 46.8852667,20.0057239 C47.3811667,20.0882358 47.8635333,20.1823964 48.3362333,20.283352 C53.0487333,21.2909672 56.0666667,23.0217744 56.0666667,24.6322114 Z M56.0666667,15.9121659 C56.0666667,17.3080721 54.9356667,18.4438233 53.5456,18.4438233 L49.0699333,18.4438233 C49.0138667,18.4312039 48.952,18.423438 48.8959333,18.4108186 C48.2618,18.2729753 47.6093,18.1496929 46.9423,18.0429129 C46.8775333,18.0332056 46.8127667,18.0225276 46.748,18.0128203 C44.4657,17.6565633 42.0297,17.4730958 39.6333333,17.4730958 C37.2369667,17.4730958 34.8029,17.6565633 32.5206,18.0128203 C32.4539,18.0225276 32.3881667,18.0332056 32.3214667,18.0429129 C31.6564,18.1496929 31.0058333,18.2729753 30.3736333,18.4098479 C30.3166,18.4224673 30.2528,18.4302331 30.1957667,18.4428526 L4.4544,18.4428526 C3.06433333,18.4438233 1.93333333,17.3080721 1.93333333,15.9121659 L1.93333333,4.47311252 C1.93333333,3.07720631 3.06433333,1.94145509 4.4544,1.94145509 L53.5446333,1.94145509 C54.9356667,1.94145509 56.0666667,3.07720631 56.0666667,4.47311252 L56.0666667,15.9121659 Z" id="Shape" fill="#16AACD"></path>
            </g>
        </g>
    </g>
</svg>