<?xml version="1.0" encoding="UTF-8" standalone="no"?>
<svg width="50px" height="56px" viewBox="0 0 50 56" version="1.1" xmlns="http://www.w3.org/2000/svg" xmlns:xlink="http://www.w3.org/1999/xlink">
    <!-- Generator: Sketch 49.1 (51147) - http://www.bohemiancoding.com/sketch -->
    <title>id (1)</title>
    <desc>Created with Sketch.</desc>
    <defs></defs>
    <g id="Page-1" stroke="none" stroke-width="1" fill="none" fill-rule="evenodd">
        <g id="Artboard-Copy-20" transform="translate(-1012.000000, -1197.000000)" fill="#C77C32" fill-rule="nonzero">
            <g id="id-(1)" transform="translate(1012.000000, 1197.000000)">
                <path d="M22.5,3 C20.5669792,3 19,4.343125 19,6 C19.0020417,7.656125 20.5678542,8.99825 22.5,9 C24.4330208,9 26,7.656875 26,6 C26,4.343125 24.4330208,3 22.5,3 Z M22.5,7 C21.8557083,7 21.3333333,6.55225 21.3333333,6 C21.3342083,5.448 21.856,5.00075 22.5,5 C23.1442917,5 23.6666667,5.44775 23.6666667,6 C23.6666667,6.55225 23.1442917,7 22.5,7 Z" id="Shape"></path>
                <path d="M39.0294118,15 L7.97058824,15 C7.43458088,15 7,15.4104375 7,15.9166667 L7,36.0833333 C7,36.5895625 7.43458088,37 7.97058824,37 L39.0294118,37 C39.5654191,37 40,36.5895625 40,36.0833333 L40,15.9166667 C40,15.4104375 39.5654191,15 39.0294118,15 Z M28.3529412,35.1666667 L18.6470588,35.1666667 L18.6470588,30.4938438 C18.648636,29.0251146 19.9089449,27.8348229 21.4640699,27.8333333 L25.5360515,27.8333333 C27.0911765,27.8348229 28.3514853,29.0251146 28.3530625,30.4938438 L28.3530625,35.1666667 L28.3529412,35.1666667 Z M20.5882353,23.25 C20.5882353,21.7311979 21.8918566,20.5 23.5,20.5 C25.1081434,20.5 26.4117647,21.7311979 26.4117647,23.25 C26.4100662,24.7681146 25.1074154,25.9983958 23.5,26 C21.8918566,26 20.5882353,24.7688021 20.5882353,23.25 Z M38.0588235,35.1666667 L30.2941176,35.1666667 L30.2941176,30.4938438 C30.2878088,28.5941667 29.0152463,26.9040625 27.1173824,26.2747708 C28.904114,24.3879271 28.7329265,21.4903438 26.7350919,19.802875 C24.7372574,18.1154062 21.6692279,18.2770833 19.8824963,20.1639271 C18.2350441,21.9037604 18.2350441,24.5349375 19.8824963,26.2747708 C17.9846324,26.9041771 16.7121912,28.5941667 16.7058824,30.4938438 L16.7058824,35.1666667 L8.94117647,35.1666667 L8.94117647,16.8333333 L38.0588235,16.8333333 L38.0588235,35.1666667 Z" id="Shape"></path>
                <rect id="Rectangle-path" x="7" y="39" width="14" height="1"></rect>
                <rect id="Rectangle-path" x="22" y="39" width="6" height="1"></rect>
                <rect id="Rectangle-path" x="7" y="45" width="22" height="1"></rect>
                <rect id="Rectangle-path" x="29" y="39" width="3" height="1"></rect>
                <path d="M49.7237842,38.5401333 L46.8935842,35.7401333 C46.5255403,35.3756667 45.9286039,35.3754333 45.5602062,35.73955 C45.535324,35.7641667 45.5119749,35.7900667 45.4900408,35.8171333 L43.3964004,38.4060833 L43.3964004,6.53333333 C43.3964004,6.0179 42.973993,5.6 42.4530003,5.6 L28.4139111,5.6 L29.2306596,1.0983 C29.322759,0.590916667 28.981602,0.1057 28.4686283,0.0147 C28.4136752,0.0049 28.3578967,0 28.3020002,0 L15.0944001,0 C14.5732895,0 14.1508822,0.4179 14.1508822,0.93345 C14.1508822,0.98875 14.155835,1.04393333 14.1657407,1.0983 L14.9824893,5.6 L0.943400008,5.6 C0.422407353,5.6 0,6.0179 0,6.53333333 L0,55.0666667 C0,55.5821 0.422407353,56 0.943400008,56 L42.4530003,56 C42.973993,56 43.3964004,55.5821 43.3964004,55.0666667 L43.3964004,47.26295 L49.7767325,39.8029333 C50.0937149,39.4324 50.0706016,38.8833667 49.7237842,38.5401333 Z M27.1742834,1.86666667 L25.4809984,11.2 L17.915402,11.2 L16.2221169,1.86666667 L27.1742834,1.86666667 Z M41.5096003,54.1333333 L1.88680002,54.1333333 L1.88680002,7.46666667 L15.321052,7.46666667 L16.1975885,12.2983 C16.2782492,12.74315 16.6695244,13.0667833 17.1262479,13.0666667 L26.2700345,13.0666667 C26.726876,13.0667833 27.1180332,12.74315 27.1986939,12.2983 L28.0752305,7.46666667 L41.5096003,7.46666667 L41.5094824,40.7394167 L38.6009802,44.3361333 L36.5160662,42.2734667 C36.1479043,41.909 35.5507321,41.9088833 35.1824523,42.2731167 C35.1823344,42.2732333 35.1822165,42.27335 35.1820986,42.2734667 L32.3518985,45.0734667 C31.9835008,45.4377 31.9833829,46.0285 32.3515448,46.39285 C32.3516627,46.3929667 32.3517806,46.3930833 32.3518985,46.3932 L38.0122986,51.9932 C38.1891861,52.1683167 38.4291635,52.2666667 38.6792824,52.2666667 L38.7184335,52.2657333 C38.9818779,52.2548833 39.2288129,52.1354167 39.3992145,51.9362667 L41.5094824,49.469 L41.5096003,54.1333333 Z M38.6213812,49.9560833 L34.3529679,45.7333333 L35.8492003,44.2530667 L38.0124165,46.3932 C38.2028654,46.57975 38.4638334,46.67845 38.7315232,46.6652667 C38.9995667,46.6505667 39.2485064,46.5236333 39.4160778,46.3162 L46.3050205,37.7972 L47.775899,39.25285 L38.6213812,49.9560833 Z" id="Shape"></path>
                <rect id="Rectangle-path" x="7" y="50" width="8" height="1"></rect>
                <rect id="Rectangle-path" x="15" y="50" width="15" height="1"></rect>
            </g>
        </g>
    </g>
</svg>