<?xml version="1.0" encoding="UTF-8" standalone="no"?>
<svg width="48px" height="44px" viewBox="0 0 48 44" version="1.1" xmlns="http://www.w3.org/2000/svg" xmlns:xlink="http://www.w3.org/1999/xlink">
    <!-- Generator: Sketch 49.1 (51147) - http://www.bohemiancoding.com/sketch -->
    <title>Group 8</title>
    <desc>Created with Sketch.</desc>
    <defs></defs>
    <g id="Page-1" stroke="none" stroke-width="1" fill="none" fill-rule="evenodd">
        <g id="Artboard-Copy-12" transform="translate(-617.000000, -891.000000)" fill="#C73266" fill-rule="nonzero">
            <g id="Group-8" transform="translate(617.000000, 891.000000)">
                <path d="M12.7237707,0 C9.67863051,0 7.20079094,2.39704661 7.20079094,5.33225658 L7,32.9789571 L10.0125258,33 L10.2134113,5.34305491 C10.2134113,4.01855099 11.3395989,2.94111675 12.7238652,2.94111675 L43,2.94111675 L43,0 L12.7237707,0 Z" id="Shape"></path>
                <path d="M42.323625,0 C39.1936875,0 36.64725,2.52822421 36.64725,5.63598246 L36.64725,36.930355 C36.64725,39.1926414 34.7929688,41.0337277 32.5144688,41.0337277 C30.2359688,41.0337277 28.3816875,39.1926414 28.3816875,36.930355 L28.3816875,33.3213454 C28.3816875,32.5021229 27.7129688,31.8381627 26.887875,31.8381627 L1.4938125,31.8381627 C0.66871875,31.8381627 0,32.5021229 0,33.3213454 L0,36.930355 C0,40.8285731 3.19415625,44 7.1203125,44 L7.1203125,41.0337277 C4.84134375,41.0337277 2.98753125,39.1926414 2.98753125,36.930355 L2.98753125,34.804435 L25.3941562,34.804435 L25.3941562,36.9302619 C25.3941562,40.82848 28.5883125,43.9999069 32.5144687,43.9999069 C36.440625,43.9999069 39.6347812,40.82848 39.6347812,36.9302619 L39.6347812,13.7437809 L46.5061875,13.7437809 C47.3312812,13.7437809 48,13.0798207 48,12.2605982 L48,5.63588938 C48,2.52822421 45.4536563,0 42.323625,0 Z M45.0124688,10.7775086 L39.634875,10.7775086 L39.634875,5.63588938 C39.634875,4.1635974 40.8413437,2.96627226 42.323625,2.96627226 C43.8059062,2.96627226 45.012375,4.16369048 45.012375,5.63588938 L45.012375,10.7775086 L45.0124688,10.7775086 Z" id="Shape"></path>
                <rect id="Rectangle-path" x="7" y="41" width="25" height="3"></rect>
                <path d="M22.4650939,8 L14.5349061,8 C13.6871147,8 13,8.67148864 13,9.5 C13,10.3285114 13.6871147,11 14.5349061,11 L22.4650939,11 C23.3128853,11 24,10.3285114 24,9.5 C24,8.67148864 23.312789,8 22.4650939,8 Z" id="Shape"></path>
                <path d="M31.4809789,14 L14.5190211,14 C13.6800036,14 13,14.6714886 13,15.5 C13,16.3285114 13.6800036,17 14.5190211,17 L31.4809789,17 C32.3199964,17 33,16.3285114 33,15.5 C33,14.6714886 32.3199964,14 31.4809789,14 Z" id="Shape"></path>
                <path d="M31.4809789,20 L14.5190211,20 C13.6800036,20 13,20.6714886 13,21.5 C13,22.3285114 13.6800036,23 14.5190211,23 L31.4809789,23 C32.3199964,23 33,22.3289821 33,21.5 C33,20.6714886 32.3199964,20 31.4809789,20 Z" id="Shape"></path>
                <path d="M31.4809789,26 L14.5190211,26 C13.6800036,26 13,26.6714886 13,27.5 C13,28.3285114 13.6800036,29 14.5190211,29 L31.4809789,29 C32.3199964,29 33,28.3285114 33,27.5 C33,26.6714886 32.3199964,26 31.4809789,26 Z" id="Shape"></path>
            </g>
        </g>
    </g>
</svg>